<svg xmlns="http://www.w3.org/2000/svg" viewBox="0 0 1920 1080" width="1920" height="1080" preserveAspectRatio="xMidYMid meet" style="width: 100%; height: 100%; transform: translate3d(0px, 0px, 0px);"><defs><clipPath id="__lottie_element_335"><rect width="1920" height="1080" x="0" y="0"></rect></clipPath><clipPath id="__lottie_element_394"><path d="M0,0 L476,0 L476,89 L0,89z"></path></clipPath><filter id="__lottie_element_396" x="-100%" y="-100%" width="300%" height="300%"><feGaussianBlur stdDeviation="8.652 8.652" edgeMode="duplicate"></feGaussianBlur></filter><clipPath id="__lottie_element_399"><path d="M0,0 L475,0 L475,93 L0,93z"></path></clipPath></defs><g clip-path="url(#__lottie_element_335)"><g clip-path="url(#__lottie_element_394)" filter="url(#__lottie_element_396)" transform="matrix(1,0,0,1,730,839)" opacity="1" style="display: block;"><g transform="matrix(1,0,0,1,0,0)" opacity="1" style="display: block;"><path fill="rgb(0,0,0)" fill-opacity="0" d=" M476,0 C476,0 476,89 476,89 C476,89 0,89 0,89 C0,89 0,0 0,0 C0,0 476,0 476,0z"></path></g><g clip-path="url(#__lottie_element_399)" transform="matrix(0.9280999898910522,0,0,0.578000009059906,17.879859924316406,18.06106948852539)" opacity="0.31" style="display: block;"><g transform="matrix(1,0,0,1,219,-302)" opacity="1" style="display: block;"><g opacity="1" transform="matrix(1.0027999877929688,0,0,2.285599946975708,18.549999237060547,348.1400146484375)"><path fill="rgb(26,8,0)" fill-opacity="1" d=" M0,-20.139999389648438 C130.55470275878906,-20.139999389648438 236.55499267578125,-11.115265846252441 236.55499267578125,0 C236.55499267578125,11.115265846252441 130.55470275878906,20.139999389648438 0,20.139999389648438 C-130.55470275878906,20.139999389648438 -236.55499267578125,11.115265846252441 -236.55499267578125,0 C-236.55499267578125,-11.115265846252441 -130.55470275878906,-20.139999389648438 0,-20.139999389648438z"></path></g></g></g></g><g transform="matrix(1,0,0,1,0,0)" opacity="1" style="display: block;"><g opacity="1" transform="matrix(0.9993640780448914,-0.035657864063978195,0.035657864063978195,0.9993640780448914,1057.8548583984375,583.3360595703125)"><g opacity="1" transform="matrix(1,0,0,1,96.95999908447266,105.79000091552734)"><path fill="rgb(241,240,227)" fill-opacity="1" d=" M33.099998474121094,80.41999816894531 C-10.524999618530273,105.54399871826172 -76.87999725341797,104.51000213623047 -92.37999725341797,74.98999786376953 C-94.16000366210938,71.5999984741211 -95.5999984741211,68.04000091552734 -96.70999908447266,64.3499984741211 C-88.98400115966797,65.36499786376953 -77.4000015258789,65.90599822998047 -64.31999969482422,62.439998626708984 C-23.47800064086914,51.62099838256836 3.3320000171661377,9.303000450134277 8.569999694824219,-29.40999984741211 C12.154999732971191,-55.909000396728516 5.290999889373779,-78.20899963378906 -0.7400000095367432,-92.11000061035156 C4.513999938964844,-94.42900085449219 31.06800079345703,-105.53600311279297 56.400001525878906,-93.13999938964844 C87.84300231933594,-77.75399780273438 91.55699920654297,-38.80500030517578 92.55000305175781,-28.389999389648438 C96.7030029296875,15.16100025177002 70.35600280761719,58.9640007019043 33.099998474121094,80.41999816894531 C33.099998474121094,80.41999816894531 33.099998474121094,80.41999816894531 33.099998474121094,80.41999816894531z"></path></g></g></g><g transform="matrix(1,0,0,1,0,0)" opacity="1" style="display: block;"><g opacity="1" transform="matrix(1,0,0,1,1094.4100341796875,779.4400024414062)"><path fill="rgb(227,225,219)" fill-opacity="1" d=" M73.77999877929688,95.61000061035156 C69.97000122070312,103.77999877929688 57.09000015258789,105.05999755859375 43.5,106.41999816894531 C30.469999313354492,107.7300033569336 -1.7100000381469727,110.95999908447266 -23.170000076293945,87.7699966430664 C-35.959999084472656,73.94000244140625 -38.869998931884766,57.27000045776367 -39.619998931884766,48.52000045776367 C-39.619998931884766,48.52000045776367 -57.970001220703125,20.049999237060547 -57.970001220703125,20.049999237060547 C-60.75,16.540000915527344 -63.290000915527344,12.600000381469727 -65.52999877929688,8.3100004196167 C-66.75,5.980000019073486 -67.87999725341797,3.549999952316284 -68.91000366210938,1.0199999809265137 C-73.08000183105469,-9.149999618530273 -75.70999908447266,-20.860000610351562 -76.27999877929688,-33.380001068115234 C-78.12000274658203,-74.29000091552734 -57.22999954223633,-108.45999908447266 -29.6299991607666,-109.69999694824219 C-2.0299999713897705,-110.94999694824219 21.84000015258789,-78.80000305175781 23.68000030517578,-37.880001068115234 C23.81999969482422,-34.689998626708984 23.829999923706055,-31.540000915527344 23.700000762939453,-28.450000762939453 C23.510000228881836,-23.6200008392334 23,-18.920000076293945 22.190000534057617,-14.399999618530273 C22.09000015258789,-13.819999694824219 21.989999771118164,-13.25 21.8700008392334,-12.680000305175781 C21.780000686645508,-10.140000343322754 21.790000915527344,-7.570000171661377 21.90999984741211,-4.960000038146973 C22.860000610351562,16.229999542236328 30.399999618530273,34.869998931884766 41.43000030517578,46.83000183105469 C41.939998626708984,47.13999938964844 42.439998626708984,47.45000076293945 42.939998626708984,47.77000045776367 C47.4900016784668,50.650001525878906 51.7599983215332,53.939998626708984 55.61000061035156,57.47999954223633 C69.69000244140625,70.37999725341797 78.12000274658203,86.31999969482422 73.77999877929688,95.61000061035156 C73.77999877929688,95.61000061035156 73.77999877929688,95.61000061035156 73.77999877929688,95.61000061035156z"></path></g></g><g transform="matrix(1,0,0,1,0,0)" opacity="1" style="display: block;"><g opacity="1" transform="matrix(1,0,0,1,799.02001953125,857.030029296875)"><path fill="rgb(227,225,219)" fill-opacity="1" d=" M36.41999816894531,-2.359999895095825 C36.41999816894531,17.760000228881836 20.110000610351562,34.060001373291016 0,34.060001373291016 C-20.110000610351562,34.060001373291016 -36.41999816894531,17.760000228881836 -36.41999816894531,-2.359999895095825 C-36.41999816894531,-4.429999828338623 -36.25,-6.46999979019165 -35.90999984741211,-8.4399995803833 C-34.459999084472656,-17.100000381469727 -29.940000534057617,-24.719999313354492 -23.520000457763672,-30.15999984741211 C-21.790000915527344,-31.6299991607666 -19.920000076293945,-32.93000030517578 -17.93000030517578,-34.060001373291016 C-5.730000019073486,-22.15999984741211 10.949999809265137,-14.84000015258789 29.350000381469727,-14.84000015258789 C30.969999313354492,-14.84000015258789 32.56999969482422,-14.899999618530273 34.15999984741211,-15.010000228881836 C35.619998931884766,-11.069999694824219 36.41999816894531,-6.809999942779541 36.41999816894531,-2.359999895095825 C36.41999816894531,-2.359999895095825 36.41999816894531,-2.359999895095825 36.41999816894531,-2.359999895095825z"></path></g></g><g transform="matrix(1,0,0,1,0,0)" opacity="1" style="display: block;"><g opacity="1" transform="matrix(1,0,0,1,808.780029296875,779.4600219726562)"><path fill="rgb(227,225,219)" fill-opacity="1" d=" M48.18000030517578,56.41999816894531 C40.869998931884766,59.83000183105469 32.849998474121094,61.970001220703125 24.399999618530273,62.560001373291016 C22.809999465942383,62.66999816894531 21.209999084472656,62.72999954223633 19.59000015258789,62.72999954223633 C1.190000057220459,62.72999954223633 -15.489999771118164,55.41999816894531 -27.690000534057617,43.52000045776367 C-40.33000183105469,31.219999313354492 -48.18000030517578,14.010000228881836 -48.18000030517578,-5.03000020980835 C-48.18000030517578,-29.43000030517578 -35.279998779296875,-50.810001373291016 -15.930000305175781,-62.72999954223633 C-13.4399995803833,-53.09000015258789 -10.300000190734863,-43.810001373291016 -6.559999942779541,-34.95000076293945 C4.230000019073486,2.7899999618530273 23.549999237060547,34.70000076293945 48.18000030517578,56.41999816894531 C48.18000030517578,56.41999816894531 48.18000030517578,56.41999816894531 48.18000030517578,56.41999816894531z"></path></g></g><g transform="matrix(1,0,0,1,0,0)" opacity="1" style="display: block;"><g opacity="1" transform="matrix(1,0,0,1,933.7100219726562,675.02001953125)"><path fill="rgb(87,72,4)" fill-opacity="1" d=" M147.64999389648438,-12.170000076293945 C147.64999389648438,19.649999618530273 140.8300018310547,49.529998779296875 128.8699951171875,75.43000030517578 C111.52999877929688,130.47999572753906 75.80000305175781,172.22000122070312 32.20000076293945,186.32000732421875 C21.729999542236328,189.72000122070312 10.8100004196167,191.50999450683594 -0.41999998688697815,191.50999450683594 C-7.329999923706055,191.50999450683594 -14.130000114440918,190.8300018310547 -20.770000457763672,189.52000427246094 C-41.18000030517578,185.49000549316406 -60.15999984741211,175.49000549316406 -76.75,160.86000061035156 C-101.37999725341797,139.13999938964844 -120.70999908447266,107.22000122070312 -131.5,69.4800033569336 C-135.24000549316406,60.619998931884766 -138.3800048828125,51.34000015258789 -140.8699951171875,41.70000076293945 C-145.27999877929688,24.700000762939453 -147.64999389648438,6.599999904632568 -147.64999389648438,-12.170000076293945 C-147.64999389648438,-63.08000183105469 -130.17999267578125,-109.02999877929688 -102.13999938964844,-141.6699981689453 C-77.68000030517578,-170.14999389648438 -45.16999816894531,-188.47999572753906 -9.180000305175781,-191.14999389648438 C-8.640000343322754,-191.1999969482422 -8.09000015258789,-191.24000549316406 -7.539999961853027,-191.27000427246094 C-6.980000019073486,-191.30999755859375 -6.429999828338623,-191.33999633789062 -5.869999885559082,-191.3699951171875 C-5.659999847412109,-191.3800048828125 -5.449999809265137,-191.38999938964844 -5.25,-191.39999389648438 C-4.349999904632568,-191.44000244140625 -3.4600000381469727,-191.47000122070312 -2.559999942779541,-191.47999572753906 C-2.4600000381469727,-191.49000549316406 -2.3499999046325684,-191.49000549316406 -2.25,-191.49000549316406 C-1.7699999809265137,-191.5 -1.2899999618530273,-191.50999450683594 -0.8100000023841858,-191.50999450683594 C-0.8100000023841858,-191.50999450683594 -0.009999999776482582,-191.50999450683594 -0.009999999776482582,-191.50999450683594 C0.6399999856948853,-191.50999450683594 1.2999999523162842,-191.5 1.9500000476837158,-191.49000549316406 C42.72999954223633,-190.86000061035156 79.52999877929688,-170.1300048828125 105.94000244140625,-137.07000732421875 C131.75,-104.77999877929688 147.64999389648438,-60.7400016784668 147.64999389648438,-12.170000076293945 C147.64999389648438,-12.170000076293945 147.64999389648438,-12.170000076293945 147.64999389648438,-12.170000076293945z"></path></g></g><g transform="matrix(1,0,0,1,0,0)" opacity="1" style="display: block;"><g opacity="1" transform="matrix(1,0,0,1,865.9500122070312,807.030029296875)"><path fill="rgb(245,242,236)" fill-opacity="1" d=" M20.020000457763672,100.4000015258789 C2.549999952316284,106.73999786376953 -22.450000762939453,104.29000091552734 -34.70000076293945,88.62000274658203 C-44.31999969482422,76.30000305175781 -42.099998474121094,60.88999938964844 -39.060001373291016,41.849998474121094 C-41.18000030517578,23.969999313354492 -44,5.039999961853027 -47.72999954223633,-14.789999961853027 C-51.959999084472656,-37.22999954223633 -56.849998474121094,-58.209999084472656 -62.060001373291016,-77.5999984741211 C-58.7599983215332,-81.68000030517578 -44.380001068115234,-98.52999877929688 -19,-102.48999786376953 C8.170000076293945,-106.73999786376953 28.049999237060547,-93.11000061035156 31.959999084472656,-90.30999755859375 C37.9900016784668,-67.81999969482422 43.689998626708984,-44.11000061035156 48.849998474121094,-19.229999542236328 C51.93000030517578,-4.369999885559082 54.66999816894531,10.15999984741211 57.09000015258789,24.34000015258789 C57.189998626708984,24.920000076293945 57.279998779296875,25.5 57.380001068115234,26.06999969482422 C62.060001373291016,54.66999816894531 48.470001220703125,90.08999633789062 20.020000457763672,100.4000015258789 C20.020000457763672,100.4000015258789 20.020000457763672,100.4000015258789 20.020000457763672,100.4000015258789z"></path></g></g><g transform="matrix(1,0,0,1,0,0)" opacity="1" style="display: block;"><g opacity="1" transform="matrix(1,0,0,1,1015.8299560546875,780.989990234375)"><path fill="rgb(245,242,236)" fill-opacity="1" d=" M61.34000015258789,-65.48999786376953 C58.630001068115234,-55.41999816894531 56.13999938964844,-52.45000076293945 50.65999984741211,-33.189998626708984 C48.220001220703125,-24.610000610351562 46.38999938964844,-18.110000610351562 45.029998779296875,-9.489999771118164 C42.9900016784668,3.490000009536743 43.08000183105469,14.420000076293945 43.54999923706055,21.920000076293945 C41.58000183105469,21.43000030517578 39.599998474121094,20.93000030517578 37.630001068115234,20.440000534057617 C39.7400016784668,26.09000015258789 44.25,40.34000015258789 39.02000045776367,52.75 C39.5099983215332,55.970001220703125 39.77000045776367,59.279998779296875 39.77000045776367,62.65999984741211 C39.77000045776367,94.76000213623047 12.109999656677246,116.86000061035156 -12.470000267028809,121.12000274658203 C-16.010000228881836,121.7300033569336 -41.900001525878906,126.22000122070312 -57.279998779296875,109.13999938964844 C-71.13999938964844,93.75 -66.5999984741211,71.77999877929688 -64.72000122070312,62.65999984741211 C-64.0999984741211,59.66999816894531 -63.20000076293945,56.16999816894531 -61.970001220703125,52.38999938964844 C-60.5099983215332,47.47999954223633 -57.68000030517578,39.97999954223633 -55.70000076293945,24.8799991607666 C-54.34000015258789,14.520000457763672 -53.2599983215332,-0.27000001072883606 -53.029998779296875,-3.559999942779541 C-52.09000015258789,-16.81999969482422 -52.45000076293945,-17.899999618530273 -51.2599983215332,-22.229999542236328 C-48.43000030517578,-32.540000915527344 -44.13999938964844,-34.849998474121094 -38.52000045776367,-46.81999969482422 C-34.08000183105469,-56.290000915527344 -34.560001373291016,-59.52000045776367 -31.700000762939453,-67.2699966430664 C-24.530000686645508,-86.62999725341797 -9.65999984741211,-98.33000183105469 -6.21999979019165,-101.04000091552734 C13.710000038146973,-116.72000122070312 48.83000183105469,-126.22000122070312 61.34000015258789,-112.5999984741211 C71.1500015258789,-101.91000366210938 65.02999877929688,-79.19999694824219 61.34000015258789,-65.48999786376953 C61.34000015258789,-65.48999786376953 61.34000015258789,-65.48999786376953 61.34000015258789,-65.48999786376953z"></path></g></g><g transform="matrix(1,0,0,1,0,0)" opacity="1" style="display: block;"><g opacity="1" transform="matrix(1,0,0,1,795.0599975585938,416.67999267578125)"><path fill="rgb(241,240,227)" fill-opacity="1" d=" M-2.380000114440918,8.539999961853027 C-2.380000114440918,23.75 -0.05999999865889549,38.40999984741211 4.25,52.20000076293945 C5.670000076293945,56.75 7.300000190734863,61.20000076293945 9.140000343322754,65.54000091552734 C9.130000114440918,65.83999633789062 9.130000114440918,66.13999938964844 9.109999656677246,66.44999694824219 C8.920000076293945,67.7699966430664 8.8100004196167,69.11000061035156 8.8100004196167,70.47000122070312 C8.819999694824219,70.4800033569336 8.8100004196167,70.48999786376953 8.8100004196167,70.51000213623047 C8.8100004196167,70.55000305175781 8.800000190734863,70.58999633789062 8.800000190734863,70.63999938964844 C8.069999694824219,78.19000244140625 6.25,86.13999938964844 2.0999999046325684,90.73999786376953 C-1.7799999713897705,95.02999877929688 -17.389999389648438,102.41000366210938 -17.389999389648438,102.41000366210938 C-17.389999389648438,102.41000366210938 -21.549999237060547,90.7699966430664 -21.549999237060547,90.7699966430664 C-21.549999237060547,90.7699966430664 -25.75,95.86000061035156 -25.75,95.86000061035156 C-25.75,95.86000061035156 -36.09000015258789,77.41999816894531 -41.41999816894531,60.77000045776367 C-41.5,60.540000915527344 -41.58000183105469,60.31999969482422 -41.650001525878906,60.09000015258789 C-48.65999984741211,38.52000045776367 -42.220001220703125,2.25 -23.110000610351562,-33.66999816894531 C-2.700000047683716,-72.0199966430664 26.110000610351562,-98.58999633789062 48.65999984741211,-102.41000366210938 C17.40999984741211,-75.61000061035156 -2.380000114440918,-35.849998474121094 -2.380000114440918,8.539999961853027 C-2.380000114440918,8.539999961853027 -2.380000114440918,8.539999961853027 -2.380000114440918,8.539999961853027z"></path></g></g><g transform="matrix(1,0,0,1,0,0)" opacity="1" style="display: block;"><g opacity="1" transform="matrix(1,0,0,1,1076.25,459.1099853515625)"><path fill="rgb(241,240,227)" fill-opacity="1" d=" M21.219999313354492,91.66000366210938 C21.219999313354492,97.44000244140625 24.799999237060547,107.22000122070312 24.799999237060547,107.22000122070312 C20.100000381469727,107.0199966430664 13.170000076293945,106.3499984741211 5.110000133514404,104.11000061035156 C-3.6700000762939453,101.66000366210938 -15.880000114440918,98.2699966430664 -25.899999618530273,87.66000366210938 C-29.469999313354492,83.87000274658203 -32.119998931884766,79.83000183105469 -34.099998474121094,75.91999816894531 C-33.7400016784668,75.4800033569336 -33.400001525878906,75.04000091552734 -33.08000183105469,74.58999633789062 C-29.959999084472656,70.37000274658203 -27.809999465942383,65.98999786376953 -26.799999237060547,61.529998779296875 C-4.710000038146973,35.93000030517578 8.65999984741211,2.5899999141693115 8.65999984741211,-33.880001068115234 C8.65999984741211,-40.31999969482422 8.239999771118164,-46.65999984741211 7.440000057220459,-52.880001068115234 C7.440000057220459,-52.880001068115234 7.440000057220459,-52.900001525878906 7.440000057220459,-52.900001525878906 C4.889999866485596,-72.48999786376953 -1.5399999618530273,-90.86000061035156 -11.050000190734863,-107.22000122070312 C-0.6800000071525574,-102.16999816894531 8.649999618530273,-89.66000366210938 15.489999771118164,-72.47000122070312 C15.489999771118164,-72.47000122070312 15.489999771118164,-72.44999694824219 15.489999771118164,-72.44999694824219 C26.530000686645508,-55.91999816894531 30.670000076293945,-41.560001373291016 32.33000183105469,-31.09000015258789 C32.33000183105469,-31.09000015258789 33.31999969482422,-24.799999237060547 34.099998474121094,8.979999542236328 C34.099998474121094,8.979999542236328 24.799999237060547,8.979999542236328 24.799999237060547,8.979999542236328 C24.799999237060547,8.979999542236328 25.280000686645508,11.569999694824219 25.979999542236328,15.4399995803833 C25.979999542236328,15.4399995803833 25.979999542236328,15.449999809265137 25.979999542236328,15.449999809265137 C27.690000534057617,24.93000030517578 30.68000030517578,42.150001525878906 30.989999771118164,48.310001373291016 C31.440000534057617,56.97999954223633 34.099998474121094,91.66000366210938 34.099998474121094,91.66000366210938 C34.099998474121094,91.66000366210938 22.100000381469727,87.22000122070312 22.100000381469727,87.22000122070312 C22.100000381469727,87.22000122070312 21.219999313354492,85.87999725341797 21.219999313354492,91.66000366210938 C21.219999313354492,91.66000366210938 21.219999313354492,91.66000366210938 21.219999313354492,91.66000366210938z"></path></g></g><g transform="matrix(1,0,0,1,0,0)" opacity="1" style="display: block;"><g opacity="1" transform="matrix(1,0,0,1,938.7999877929688,399.8699951171875)"><path fill="rgb(245,242,236)" fill-opacity="1" d=" M111.2699966430664,116.55999755859375 C111.62999725341797,110.7300033569336 109.97000122070312,104.88999938964844 106.69000244140625,99.20999908447266 C101,89.30999755859375 90.43000030517578,79.83999633789062 77.19999694824219,71.51000213623047 C54.150001525878906,56.9900016784668 22.969999313354492,45.939998626708984 -4.739999771118164,42.150001525878906 C-34.709999084472656,38.060001373291016 -71.38999938964844,40.9900016784668 -98.16999816894531,50.65999984741211 C-117.16999816894531,57.5 -131.16000366210938,67.75 -134.25,81.27999877929688 C-134.33999633789062,81.69999694824219 -134.42999267578125,82.11000061035156 -134.5,82.52999877929688 C-134.52999877929688,82.47000122070312 -134.55999755859375,82.41000366210938 -134.58999633789062,82.3499984741211 C-136.42999267578125,78.01000213623047 -138.07000732421875,73.55999755859375 -139.49000549316406,69.01000213623047 C-143.8000030517578,55.220001220703125 -146.1199951171875,40.560001373291016 -146.1199951171875,25.350000381469727 C-146.1199951171875,-19.040000915527344 -126.33000183105469,-58.79999923706055 -95.08000183105469,-85.5999984741211 C-69.52999877929688,-107.5199966430664 -36.310001373291016,-120.7699966430664 -0.009999999776482582,-120.7699966430664 C53.959999084472656,-120.7699966430664 101.11000061035156,-91.51000213623047 126.41000366210938,-47.97999954223633 C135.9199981689453,-31.6200008392334 142.35000610351562,-13.25 144.89999389648438,6.340000152587891 C144.89999389648438,6.340000152587891 144.89999389648438,6.349999904632568 144.89999389648438,6.349999904632568 C145.6999969482422,12.569999694824219 146.1199951171875,18.90999984741211 146.1199951171875,25.350000381469727 C146.1199951171875,61.81999969482422 132.75,95.16999816894531 110.66000366210938,120.7699966430664 C110.9800033569336,119.37000274658203 111.18000030517578,117.97000122070312 111.2699966430664,116.55999755859375 C111.2699966430664,116.55999755859375 111.2699966430664,116.55999755859375 111.2699966430664,116.55999755859375z"></path></g></g><g transform="matrix(1,0,0,1,0,0)" opacity="1" style="display: block;"><g opacity="1" transform="matrix(1,0,0,1,927.1499633789062,508.70001220703125)"><path fill="rgb(255,255,255)" fill-opacity="1" d=" M122.91000366210938,7.730000019073486 C122.81999969482422,9.140000343322754 122.62000274658203,10.539999961853027 122.30000305175781,11.9399995803833 C121.29000091552734,16.399999618530273 119.13999938964844,20.780000686645508 116.0199966430664,25 C115.69999694824219,25.450000762939453 115.36000061035156,25.889999389648438 115,26.329999923706055 C114.22000122070312,27.309999465942383 113.38999938964844,28.290000915527344 112.51000213623047,29.25 C111.05999755859375,30.84000015258789 109.47000122070312,32.40999984741211 107.75,33.939998626708984 C83.29000091552734,55.779998779296875 33.439998626708984,70.7699966430664 -10.539999961853027,64.45999908447266 C-40.310001373291016,60.189998626708984 -69.91999816894531,45.779998779296875 -91.31999969482422,28.280000686645508 C-92.77999877929688,27.079999923706055 -94.19999694824219,25.8700008392334 -95.58000183105469,24.649999618530273 C-112.41000366210938,9.760000228881836 -123.19000244140625,-6.929999828338623 -123.2699966430664,-21.389999389648438 C-123.2699966430664,-21.389999389648438 -123.2699966430664,-21.510000228881836 -123.2699966430664,-21.510000228881836 C-123.2699966430664,-21.530000686645508 -123.26000213623047,-21.540000915527344 -123.2699966430664,-21.549999237060547 C-123.13999938964844,-22.90999984741211 -123.04000091552734,-24.260000228881836 -122.9800033569336,-25.56999969482422 C-122.94000244140625,-25.809999465942383 -122.9000015258789,-26.059999465942383 -122.86000061035156,-26.299999237060547 C-122.79000091552734,-26.719999313354492 -122.69999694824219,-27.1299991607666 -122.61000061035156,-27.549999237060547 C-119.5199966430664,-41.08000183105469 -105.5199966430664,-51.33000183105469 -86.5199966430664,-58.16999816894531 C-59.7400016784668,-67.83999633789062 -23.059999465942383,-70.7699966430664 6.909999847412109,-66.68000030517578 C34.619998931884766,-62.88999938964844 65.80000305175781,-51.84000015258789 88.8499984741211,-37.31999969482422 C102.08000183105469,-28.989999771118164 112.63999938964844,-19.520000457763672 118.33000183105469,-9.619999885559082 C121.61000061035156,-3.940000057220459 123.2699966430664,1.899999976158142 122.91000366210938,7.730000019073486 C122.91000366210938,7.730000019073486 122.91000366210938,7.730000019073486 122.91000366210938,7.730000019073486z"></path></g></g><g transform="matrix(1,0,0,1,0,0)" opacity="1" style="display: block;"><g opacity="1" transform="matrix(1,0,0,1,930.02001953125,497.5899963378906)"><path fill="rgb(156,153,148)" fill-opacity="1" d=" M34.34000015258789,5.550000190734863 C32.44499969482422,17.270999908447266 15.532999992370605,24.28499984741211 -3.430000066757202,21.219999313354492 C-22.39299964904785,18.155000686645508 -36.23400115966797,6.170000076293945 -34.34000015258789,-5.550000190734863 C-32.44499969482422,-17.270999908447266 -15.532999992370605,-24.285999298095703 3.430000066757202,-21.219999313354492 C22.393999099731445,-18.155000686645508 36.23500061035156,-6.171000003814697 34.34000015258789,5.550000190734863 C34.34000015258789,5.550000190734863 34.34000015258789,5.550000190734863 34.34000015258789,5.550000190734863z"></path></g></g><g transform="matrix(1,0,0,1,0,0)" opacity="1" style="display: block;"><g opacity="1" transform="matrix(1.0438868999481201,0.10971693694591522,-0.10971693694591522,1.0438868999481201,945,382)"><g opacity="1" transform="matrix(1,0,0,1,0,0)"><g opacity="1" transform="matrix(1,0,0,1,0,0)"><path stroke-linecap="round" stroke-linejoin="round" fill-opacity="0" stroke="rgb(190,230,255)" stroke-opacity="0.75" stroke-width="4" d=" M-0.98,-167.8 C7.3,-167.8 14.02,-161.08 14.02,-152.8 C14.02,-144.52 7.3,-137.8 -0.98,-137.8 C-9.26,-137.8 -15.98,-144.52 -15.98,-152.8 C-15.98,-161.08 -9.26,-167.8 -0.98,-167.8z M-7.12,-83.73 C-7.12,-83.73 -7.12,-168.73 -7.12,-168.73"></path><path fill="rgb(0,123,255)" fill-opacity="0.9500000000000001" d=" M-0.98,-167.8 C7.3,-167.8 14.02,-161.08 14.02,-152.8 C14.02,-144.52 7.3,-137.8 -0.98,-137.8 C-9.26,-137.8 -15.98,-144.52 -15.98,-152.8 C-15.98,-161.08 -9.26,-167.8 -0.98,-167.8z M-7.12,-83.73 C-7.12,-83.73 -7.12,-168.73 -7.12,-168.73"></path><g opacity="1" transform="matrix(1,0,0,1,-0.9800000190734863,-152.8000030517578)"></g><g opacity="1" transform="matrix(1,0,0,1,-27.1200008392334,-13.729999542236328)"></g></g></g><g opacity="1" transform="matrix(1,0,0,1,-20.979999542236328,2.1999969482421875)"><path stroke-linecap="round" stroke-linejoin="round" fill-opacity="0" stroke="rgb(42,49,55)" stroke-opacity="1" stroke-width="8" d=" M20,-70 C20,-70 20,-155 20,-155"></path></g></g></g><g transform="matrix(1,0,0,1,0,0)" opacity="1" style="display: block;"><g opacity="1" transform="matrix(1,0,0,1,860.6400146484375,385.8000183105469)"><g opacity="1" transform="matrix(1,0,0,1,20.68000030517578,24.1200008392334)"><path fill="rgb(0,0,0)" fill-opacity="1" d=" M17.100000381469727,4.869999885559082 C13.770999908447266,16.570999145507812 3.4130001068115234,23.867000579833984 -6.03000020980835,21.18000030517578 C-15.473999977111816,18.493000030517578 -20.429000854492188,6.829999923706055 -17.100000381469727,-4.869999885559082 C-13.770999908447266,-16.56999969482422 -3.4130001068115234,-23.87700080871582 6.03000020980835,-21.190000534057617 C15.473999977111816,-18.503000259399414 20.429000854492188,-6.829999923706055 17.100000381469727,4.869999885559082 C17.100000381469727,4.869999885559082 17.100000381469727,4.869999885559082 17.100000381469727,4.869999885559082z"></path></g><g opacity="1" transform="matrix(1,0,0,1,27.84000015258789,22.81999969482422)"><path fill="rgb(255,255,255)" fill-opacity="1" d=" M-5.539999961853027,-1.5800000429153442 C-6.616000175476074,2.2009999752044678 -5.010000228881836,5.979000091552734 -1.9500000476837158,6.849999904632568 C1.1100000143051147,7.7210001945495605 4.464000225067139,5.361000061035156 5.539999961853027,1.5800000429153442 C6.616000175476074,-2.2019999027252197 5.011000156402588,-5.979000091552734 1.9500000476837158,-6.849999904632568 C-1.1100000143051147,-7.71999979019165 -4.464000225067139,-5.361000061035156 -5.539999961853027,-1.5800000429153442 C-5.539999961853027,-1.5800000429153442 -5.539999961853027,-1.5800000429153442 -5.539999961853027,-1.5800000429153442z"></path></g></g></g><g transform="matrix(1,0,0,1,0,0)" opacity="1" style="display: block;"><g opacity="1" transform="matrix(1,0,0,1,860.6400146484375,385.8000183105469)"><g opacity="1" transform="matrix(1,0,0,1,137.07000732421875,45.86000061035156)"><path fill="rgb(0,0,0)" fill-opacity="1" d=" M17.100000381469727,4.869999885559082 C13.770999908447266,16.570999145507812 3.4130001068115234,23.867000579833984 -6.03000020980835,21.18000030517578 C-15.473999977111816,18.493000030517578 -20.429000854492188,6.829999923706055 -17.100000381469727,-4.869999885559082 C-13.770999908447266,-16.570999145507812 -3.4130001068115234,-23.87700080871582 6.03000020980835,-21.190000534057617 C15.473999977111816,-18.503000259399414 20.429000854492188,-6.830999851226807 17.100000381469727,4.869999885559082 C17.100000381469727,4.869999885559082 17.100000381469727,4.869999885559082 17.100000381469727,4.869999885559082z"></path></g><g opacity="1" transform="matrix(1,0,0,1,142.9499969482422,42.220001220703125)"><path fill="rgb(255,255,255)" fill-opacity="1" d=" M-5.539999961853027,-1.5800000429153442 C-6.616000175476074,2.2009999752044678 -5.010000228881836,5.979000091552734 -1.9500000476837158,6.849999904632568 C1.1100000143051147,7.7210001945495605 4.465000152587891,5.361000061035156 5.539999961853027,1.5800000429153442 C6.616000175476074,-2.2019999027252197 5.011000156402588,-5.979000091552734 1.9500000476837158,-6.849999904632568 C-1.1100000143051147,-7.7210001945495605 -4.464000225067139,-5.361000061035156 -5.539999961853027,-1.5800000429153442 C-5.539999961853027,-1.5800000429153442 -5.539999961853027,-1.5800000429153442 -5.539999961853027,-1.5800000429153442z"></path></g></g></g><g transform="matrix(1,0,0,1,960,420)" opacity="1" style="display: block;"><g opacity="1" transform="matrix(1,0,0,1,0,0)"><g opacity="1" transform="matrix(1,0,0,1,16,18)"><g opacity="1" transform="matrix(0.3199999928474426,0,0,0.3199999928474426,72,60)"><path stroke-linecap="round" stroke-linejoin="round" fill-opacity="0" stroke="rgb(42,46,54)" stroke-opacity="0.25" stroke-width="3" d=" M0,-18 C5,-20 5,-10 10,-8 C11,-2 7,16 8,10 C8,17 0,23 0,16 C-1,22 -7,16 -8,10 C-13,8 -5,-10 -10,-8 C-10,-8 0,-18 0,-18z"></path><path fill="rgb(123,211,255)" fill-opacity="0.6" d=" M0,-18 C5,-20 5,-10 10,-8 C11,-2 7,16 8,10 C8,17 0,23 0,16 C-1,22 -7,16 -8,10 C-13,8 -5,-10 -10,-8 C-10,-8 0,-18 0,-18z"></path></g><g opacity="1" transform="matrix(0.41999998688697815,0,0,0.41999998688697815,72,36)"><path stroke-linecap="round" stroke-linejoin="round" fill-opacity="0" stroke="rgb(42,46,54)" stroke-opacity="0.25" stroke-width="3" d=" M0,-18 C5,-20 5,-10 10,-8 C11,-2 7,16 8,10 C8,17 0,23 0,16 C-1,22 -7,16 -8,10 C-13,8 -5,-10 -10,-8 C-10,-8 0,-18 0,-18z"></path><path fill="rgb(123,211,255)" fill-opacity="0.6" d=" M0,-18 C5,-20 5,-10 10,-8 C11,-2 7,16 8,10 C8,17 0,23 0,16 C-1,22 -7,16 -8,10 C-13,8 -5,-10 -10,-8 C-10,-8 0,-18 0,-18z"></path></g><g opacity="1" transform="matrix(0.550000011920929,0,0,0.550000011920929,72,6)"><path stroke-linecap="round" stroke-linejoin="round" fill-opacity="0" stroke="rgb(42,46,54)" stroke-opacity="0.25" stroke-width="3" d=" M0,-18 C5,-20 5,-10 10,-8 C11,-2 7,16 8,10 C8,17 0,23 0,16 C-1,22 -7,16 -8,10 C-13,8 -5,-10 -10,-8 C-10,-8 0,-18 0,-18z"></path><path fill="rgb(123,211,255)" fill-opacity="0.6" d=" M0,-18 C5,-20 5,-10 10,-8 C11,-2 7,16 8,10 C8,17 0,23 0,16 C-1,22 -7,16 -8,10 C-13,8 -5,-10 -10,-8 C-10,-8 0,-18 0,-18z"></path></g></g></g></g><g transform="matrix(1.005642056465149,0.0074777076952159405,-0.0074777076952159405,1.005642056465149,1113.80810546875,235.5809783935547)" opacity="0.9442602952545542" style="display: block;"><g opacity="1" transform="matrix(1,0,0,1,0,0)"><g opacity="1" transform="matrix(1,0,0,1,44,0)"><path fill="rgb(42,46,54)" fill-opacity="0.5689650520872765" d=" M0,-7 C3.863300085067749,-7 7,-3.863300085067749 7,0 C7,3.863300085067749 3.863300085067749,7 0,7 C-3.863300085067749,7 -7,3.863300085067749 -7,0 C-7,-3.863300085067749 -3.863300085067749,-7 0,-7z"></path></g><g opacity="1" transform="matrix(1,0,0,1,22,0)"><path fill="rgb(42,46,54)" fill-opacity="0.8827333984510969" d=" M0,-7 C3.863300085067749,-7 7,-3.863300085067749 7,0 C7,3.863300085067749 3.863300085067749,7 0,7 C-3.863300085067749,7 -7,3.863300085067749 -7,0 C-7,-3.863300085067749 -3.863300085067749,-7 0,-7z"></path></g><g opacity="1" transform="matrix(1,0,0,1,0,0)"><path fill="rgb(42,46,54)" fill-opacity="0.9945533519443513" d=" M0,-7 C3.863300085067749,-7 7,-3.863300085067749 7,0 C7,3.863300085067749 3.863300085067749,7 0,7 C-3.863300085067749,7 -7,3.863300085067749 -7,0 C-7,-3.863300085067749 -3.863300085067749,-7 0,-7z"></path></g></g></g><g transform="matrix(1.005642056465149,0.0074777076952159405,-0.0074777076952159405,1.005642056465149,1113.80810546875,235.5809783935547)" opacity="0.9442602952545542" style="display: block;"><g opacity="1" transform="matrix(1,0,0,1,0,0)"><g opacity="1" transform="matrix(0.9993908405303955,-0.03489949554204941,0.03489949554204941,0.9993908405303955,0,0)"><g opacity="1" transform="matrix(1,0,0,1,0,0)"><g opacity="1" transform="matrix(1,0,0,1,0,0)"><path stroke-linecap="round" stroke-linejoin="round" fill-opacity="0" stroke="rgb(42,46,54)" stroke-opacity="1" stroke-width="5" d=" M0,42 C6.622799873352051,42 12,47.377201080322266 12,54 C12,60.622798919677734 6.622799873352051,66 0,66 C-6.622799873352051,66 -12,60.622798919677734 -12,54 C-12,47.377201080322266 -6.622799873352051,42 0,42z"></path><path fill="rgb(255,255,255)" fill-opacity="0.55" d=" M0,42 C6.622799873352051,42 12,47.377201080322266 12,54 C12,60.622798919677734 6.622799873352051,66 0,66 C-6.622799873352051,66 -12,60.622798919677734 -12,54 C-12,47.377201080322266 -6.622799873352051,42 0,42z"></path></g><g opacity="1" transform="matrix(1,0,0,1,0,0)"><path stroke-linecap="round" stroke-linejoin="round" fill-opacity="0" stroke="rgb(42,46,54)" stroke-opacity="1" stroke-width="5" d=" M0,28 C6.622799873352051,28 12,33.377201080322266 12,40 C12,46.622798919677734 6.622799873352051,52 0,52 C-6.622799873352051,52 -12,46.622798919677734 -12,40 C-12,33.377201080322266 -6.622799873352051,28 0,28z"></path><path fill="rgb(255,255,255)" fill-opacity="0.55" d=" M0,28 C6.622799873352051,28 12,33.377201080322266 12,40 C12,46.622798919677734 6.622799873352051,52 0,52 C-6.622799873352051,52 -12,46.622798919677734 -12,40 C-12,33.377201080322266 -6.622799873352051,28 0,28z"></path></g><g opacity="1" transform="matrix(1,0,0,1,0,0)"><path stroke-linecap="round" stroke-linejoin="round" fill-opacity="0" stroke="rgb(42,46,54)" stroke-opacity="1" stroke-width="5" d=" M0,14 C6.622799873352051,14 12,19.377199172973633 12,26 C12,32.622798919677734 6.622799873352051,38 0,38 C-6.622799873352051,38 -12,32.622798919677734 -12,26 C-12,19.377199172973633 -6.622799873352051,14 0,14z"></path><path fill="rgb(255,255,255)" fill-opacity="0.55" d=" M0,14 C6.622799873352051,14 12,19.377199172973633 12,26 C12,32.622798919677734 6.622799873352051,38 0,38 C-6.622799873352051,38 -12,32.622798919677734 -12,26 C-12,19.377199172973633 -6.622799873352051,14 0,14z"></path></g><g opacity="1" transform="matrix(1,0,0,1,0,0)"><path stroke-linecap="round" stroke-linejoin="round" fill-opacity="0" stroke="rgb(42,46,54)" stroke-opacity="1" stroke-width="5" d=" M0,0 C6.622799873352051,0 12,5.377200126647949 12,12 C12,18.622800827026367 6.622799873352051,24 0,24 C-6.622799873352051,24 -12,18.622800827026367 -12,12 C-12,5.377200126647949 -6.622799873352051,0 0,0z"></path><path fill="rgb(255,255,255)" fill-opacity="0.55" d=" M0,0 C6.622799873352051,0 12,5.377200126647949 12,12 C12,18.622800827026367 6.622799873352051,24 0,24 C-6.622799873352051,24 -12,18.622800827026367 -12,12 C-12,5.377200126647949 -6.622799873352051,0 0,0z"></path></g><g opacity="1" transform="matrix(1,0,0,1,0,0)"><path stroke-linecap="round" stroke-linejoin="round" fill-opacity="0" stroke="rgb(42,46,54)" stroke-opacity="1" stroke-width="5" d=" M0,-14 C6.622799873352051,-14 12,-8.62279987335205 12,-2 C12,4.622799873352051 6.622799873352051,10 0,10 C-6.622799873352051,10 -12,4.622799873352051 -12,-2 C-12,-8.62279987335205 -6.622799873352051,-14 0,-14z"></path><path fill="rgb(255,255,255)" fill-opacity="0.55" d=" M0,-14 C6.622799873352051,-14 12,-8.62279987335205 12,-2 C12,4.622799873352051 6.622799873352051,10 0,10 C-6.622799873352051,10 -12,4.622799873352051 -12,-2 C-12,-8.62279987335205 -6.622799873352051,-14 0,-14z"></path></g><g opacity="1" transform="matrix(1,0,0,1,0,0)"><path stroke-linecap="round" stroke-linejoin="round" fill-opacity="0" stroke="rgb(42,46,54)" stroke-opacity="1" stroke-width="5" d=" M0,-28 C6.622799873352051,-28 12,-22.622800827026367 12,-16 C12,-9.37720012664795 6.622799873352051,-4 0,-4 C-6.622799873352051,-4 -12,-9.37720012664795 -12,-16 C-12,-22.622800827026367 -6.622799873352051,-28 0,-28z"></path><path fill="rgb(255,255,255)" fill-opacity="0.55" d=" M0,-28 C6.622799873352051,-28 12,-22.622800827026367 12,-16 C12,-9.37720012664795 6.622799873352051,-4 0,-4 C-6.622799873352051,-4 -12,-9.37720012664795 -12,-16 C-12,-22.622800827026367 -6.622799873352051,-28 0,-28z"></path></g><g opacity="1" transform="matrix(1,0,0,1,0,0)"><path stroke-linecap="round" stroke-linejoin="round" fill-opacity="0" stroke="rgb(42,46,54)" stroke-opacity="1" stroke-width="5" d=" M0,-42 C6.622799873352051,-42 12,-36.622798919677734 12,-30 C12,-23.377199172973633 6.622799873352051,-18 0,-18 C-6.622799873352051,-18 -12,-23.377199172973633 -12,-30 C-12,-36.622798919677734 -6.622799873352051,-42 0,-42z"></path><path fill="rgb(255,255,255)" fill-opacity="0.55" d=" M0,-42 C6.622799873352051,-42 12,-36.622798919677734 12,-30 C12,-23.377199172973633 6.622799873352051,-18 0,-18 C-6.622799873352051,-18 -12,-23.377199172973633 -12,-30 C-12,-36.622798919677734 -6.622799873352051,-42 0,-42z"></path></g><g opacity="1" transform="matrix(1,0,0,1,0,0)"><path stroke-linecap="round" stroke-linejoin="round" fill-opacity="0" stroke="rgb(42,46,54)" stroke-opacity="1" stroke-width="5" d=" M0,-56 C6.622799873352051,-56 12,-50.622798919677734 12,-44 C12,-37.377201080322266 6.622799873352051,-32 0,-32 C-6.622799873352051,-32 -12,-37.377201080322266 -12,-44 C-12,-50.622798919677734 -6.622799873352051,-56 0,-56z"></path><path fill="rgb(255,255,255)" fill-opacity="0.55" d=" M0,-56 C6.622799873352051,-56 12,-50.622798919677734 12,-44 C12,-37.377201080322266 6.622799873352051,-32 0,-32 C-6.622799873352051,-32 -12,-37.377201080322266 -12,-44 C-12,-50.622798919677734 -6.622799873352051,-56 0,-56z"></path></g></g><g opacity="1" transform="matrix(1,0,0,1,0,0)"><path stroke-linecap="round" stroke-linejoin="round" fill-opacity="0" stroke="rgb(42,46,54)" stroke-opacity="0.28" stroke-width="3" d=" M0,-58 C0,-58 0,66 0,66"></path></g><g opacity="1" transform="matrix(0.9704627394676208,0.13638964295387268,-0.13917310535907745,0.9902680516242981,-7.763701915740967,-1.0911171436309814)"><path stroke-linecap="round" stroke-linejoin="round" fill-opacity="0" stroke="rgb(42,46,54)" stroke-opacity="1" stroke-width="5" d=" M40,-38 C40,-38 40,38 40,38 C40,43.51900100708008 35.51900100708008,48 30,48 C30,48 30,48 30,48 C24.481000900268555,48 20,43.51900100708008 20,38 C20,38 20,-38 20,-38 C20,-43.51900100708008 24.481000900268555,-48 30,-48 C30,-48 30,-48 30,-48 C35.51900100708008,-48 40,-43.51900100708008 40,-38z M114,-38 C114,-38 114,38 114,38 C114,45.726600646972656 107.72660064697266,52 100,52 C100,52 32,52 32,52 C24.273399353027344,52 18,45.726600646972656 18,38 C18,38 18,-38 18,-38 C18,-45.726600646972656 24.273399353027344,-52 32,-52 C32,-52 100,-52 100,-52 C107.72660064697266,-52 114,-45.726600646972656 114,-38z"></path><path fill="rgb(241,226,199)" fill-opacity="0.45" d=" M40,-38 C40,-38 40,38 40,38 C40,43.51900100708008 35.51900100708008,48 30,48 C30,48 30,48 30,48 C24.481000900268555,48 20,43.51900100708008 20,38 C20,38 20,-38 20,-38 C20,-43.51900100708008 24.481000900268555,-48 30,-48 C30,-48 30,-48 30,-48 C35.51900100708008,-48 40,-43.51900100708008 40,-38z M114,-38 C114,-38 114,38 114,38 C114,45.726600646972656 107.72660064697266,52 100,52 C100,52 32,52 32,52 C24.273399353027344,52 18,45.726600646972656 18,38 C18,38 18,-38 18,-38 C18,-45.726600646972656 24.273399353027344,-52 32,-52 C32,-52 100,-52 100,-52 C107.72660064697266,-52 114,-45.726600646972656 114,-38z"></path><path fill="rgb(255,245,230)" fill-opacity="1" d=" M114,-38 C114,-38 114,38 114,38 C114,45.726600646972656 107.72660064697266,52 100,52 C100,52 32,52 32,52 C24.273399353027344,52 18,45.726600646972656 18,38 C18,38 18,-38 18,-38 C18,-45.726600646972656 24.273399353027344,-52 32,-52 C32,-52 100,-52 100,-52 C107.72660064697266,-52 114,-45.726600646972656 114,-38z"></path></g><g opacity="1" transform="matrix(0.9704627394676208,-0.13638964295387268,0.13917310535907745,0.9902680516242981,7.763701915740967,-1.0911171436309814)"><path stroke-linecap="round" stroke-linejoin="round" fill-opacity="0" stroke="rgb(42,46,54)" stroke-opacity="1" stroke-width="5" d=" M-20,-38 C-20,-38 -20,38 -20,38 C-20,43.51900100708008 -24.481000900268555,48 -30,48 C-30,48 -30,48 -30,48 C-35.51900100708008,48 -40,43.51900100708008 -40,38 C-40,38 -40,-38 -40,-38 C-40,-43.51900100708008 -35.51900100708008,-48 -30,-48 C-30,-48 -30,-48 -30,-48 C-24.481000900268555,-48 -20,-43.51900100708008 -20,-38z M-18,-38 C-18,-38 -18,38 -18,38 C-18,45.726600646972656 -24.273399353027344,52 -32,52 C-32,52 -100,52 -100,52 C-107.72660064697266,52 -114,45.726600646972656 -114,38 C-114,38 -114,-38 -114,-38 C-114,-45.726600646972656 -107.72660064697266,-52 -100,-52 C-100,-52 -32,-52 -32,-52 C-24.273399353027344,-52 -18,-45.726600646972656 -18,-38z"></path><path fill="rgb(231,237,247)" fill-opacity="0.45" d=" M-20,-38 C-20,-38 -20,38 -20,38 C-20,43.51900100708008 -24.481000900268555,48 -30,48 C-30,48 -30,48 -30,48 C-35.51900100708008,48 -40,43.51900100708008 -40,38 C-40,38 -40,-38 -40,-38 C-40,-43.51900100708008 -35.51900100708008,-48 -30,-48 C-30,-48 -30,-48 -30,-48 C-24.481000900268555,-48 -20,-43.51900100708008 -20,-38z M-18,-38 C-18,-38 -18,38 -18,38 C-18,45.726600646972656 -24.273399353027344,52 -32,52 C-32,52 -100,52 -100,52 C-107.72660064697266,52 -114,45.726600646972656 -114,38 C-114,38 -114,-38 -114,-38 C-114,-45.726600646972656 -107.72660064697266,-52 -100,-52 C-100,-52 -32,-52 -32,-52 C-24.273399353027344,-52 -18,-45.726600646972656 -18,-38z"></path><path fill="rgb(255,255,255)" fill-opacity="1" d=" M-18,-38 C-18,-38 -18,38 -18,38 C-18,45.726600646972656 -24.273399353027344,52 -32,52 C-32,52 -100,52 -100,52 C-107.72660064697266,52 -114,45.726600646972656 -114,38 C-114,38 -114,-38 -114,-38 C-114,-45.726600646972656 -107.72660064697266,-52 -100,-52 C-100,-52 -32,-52 -32,-52 C-24.273399353027344,-52 -18,-45.726600646972656 -18,-38z"></path></g><path fill="rgb(0,0,0)" fill-opacity="0.1" d=" M0,56 C69.53939819335938,56 126,67.65059661865234 126,82 C126,96.34940338134766 69.53939819335938,108 0,108 C-69.53939819335938,108 -126,96.34940338134766 -126,82 C-126,67.65059661865234 -69.53939819335938,56 0,56z"></path></g></g></g><g transform="matrix(1.005642056465149,0.0074777076952159405,-0.0074777076952159405,1.005642056465149,1113.80810546875,235.5809783935547)" opacity="0.9442602952545542" style="display: block;"><g opacity="1" transform="matrix(1,0,0,1,0,0)"><g opacity="1" transform="matrix(0.9906553626060486,-0.13638891279697418,0.13638891279697418,0.9906553626060486,65.67788696289062,22)"><g opacity="1" transform="matrix(0.949999988079071,0,0,0.949999988079071,0,0)"><path stroke-linecap="round" stroke-linejoin="round" fill-opacity="0" stroke="rgb(42,46,54)" stroke-opacity="1" stroke-width="4" d=" M13,-3 C13,-3 13,3 13,3 C13,6.86329984664917 9.863300323486328,10 6,10 C6,10 -6,10 -6,10 C-9.863300323486328,10 -13,6.86329984664917 -13,3 C-13,3 -13,-3 -13,-3 C-13,-6.86329984664917 -9.863300323486328,-10 -6,-10 C-6,-10 6,-10 6,-10 C9.863300323486328,-10 13,-6.86329984664917 13,-3z M13,-42 C13,-42 13,42 13,42 C13,46.967098236083984 8.967100143432617,51 4,51 C4,51 -4,51 -4,51 C-8.967100143432617,51 -13,46.967098236083984 -13,42 C-13,42 -13,-42 -13,-42 C-13,-46.967098236083984 -8.967100143432617,-51 -4,-51 C-4,-51 4,-51 4,-51 C8.967100143432617,-51 13,-46.967098236083984 13,-42z"></path><path fill="rgb(241,139,139)" fill-opacity="1" d=" M13,-3 C13,-3 13,3 13,3 C13,6.86329984664917 9.863300323486328,10 6,10 C6,10 -6,10 -6,10 C-9.863300323486328,10 -13,6.86329984664917 -13,3 C-13,3 -13,-3 -13,-3 C-13,-6.86329984664917 -9.863300323486328,-10 -6,-10 C-6,-10 6,-10 6,-10 C9.863300323486328,-10 13,-6.86329984664917 13,-3z M13,-42 C13,-42 13,42 13,42 C13,46.967098236083984 8.967100143432617,51 4,51 C4,51 -4,51 -4,51 C-8.967100143432617,51 -13,46.967098236083984 -13,42 C-13,42 -13,-42 -13,-42 C-13,-46.967098236083984 -8.967100143432617,-51 -4,-51 C-4,-51 4,-51 4,-51 C8.967100143432617,-51 13,-46.967098236083984 13,-42z"></path><path stroke-linecap="round" stroke-linejoin="round" fill-opacity="0" stroke="rgb(42,46,54)" stroke-opacity="1" stroke-width="4" d=" M13,-42 C13,-42 13,42 13,42 C13,46.967098236083984 8.967100143432617,51 4,51 C4,51 -4,51 -4,51 C-8.967100143432617,51 -13,46.967098236083984 -13,42 C-13,42 -13,-42 -13,-42 C-13,-46.967098236083984 -8.967100143432617,-51 -4,-51 C-4,-51 4,-51 4,-51 C8.967100143432617,-51 13,-46.967098236083984 13,-42z"></path><path fill="rgb(230,209,180)" fill-opacity="1" d=" M13,-42 C13,-42 13,42 13,42 C13,46.967098236083984 8.967100143432617,51 4,51 C4,51 -4,51 -4,51 C-8.967100143432617,51 -13,46.967098236083984 -13,42 C-13,42 -13,-42 -13,-42 C-13,-46.967098236083984 -8.967100143432617,-51 -4,-51 C-4,-51 4,-51 4,-51 C8.967100143432617,-51 13,-46.967098236083984 13,-42z"></path><path stroke-linecap="round" stroke-linejoin="round" fill-opacity="0" stroke="rgb(42,46,54)" stroke-opacity="1" stroke-width="4" d=" M13,-42 C13,-42 13,42 13,42 C13,46.967098236083984 8.967100143432617,51 4,51 C4,51 -4,51 -4,51 C-8.967100143432617,51 -13,46.967098236083984 -13,42 C-13,42 -13,-42 -13,-42 C-13,-46.967098236083984 -8.967100143432617,-51 -4,-51 C-4,-51 4,-51 4,-51 C8.967100143432617,-51 13,-46.967098236083984 13,-42z"></path><path fill="rgb(244,195,47)" fill-opacity="1" d=" M13,-42 C13,-42 13,42 13,42 C13,46.967098236083984 8.967100143432617,51 4,51 C4,51 -4,51 -4,51 C-8.967100143432617,51 -13,46.967098236083984 -13,42 C-13,42 -13,-42 -13,-42 C-13,-46.967098236083984 -8.967100143432617,-51 -4,-51 C-4,-51 4,-51 4,-51 C8.967100143432617,-51 13,-46.967098236083984 13,-42z"></path></g></g></g></g></g></svg>