<svg xmlns="http://www.w3.org/2000/svg" viewBox="0 0 1080 1080" width="1080" height="1080" preserveAspectRatio="xMidYMid meet" style="width: 100%; height: 100%; transform: translate3d(0px, 0px, 0px);"><defs><clipPath id="__lottie_element_409"><rect width="1080" height="1080" x="0" y="0"></rect></clipPath><clipPath id="__lottie_element_411"><path d="M0,0 L1080,0 L1080,1080 L0,1080z"></path></clipPath><clipPath id="__lottie_element_428"><path d="M0,0 L752,0 L752,44 L0,44z"></path></clipPath></defs><g clip-path="url(#__lottie_element_409)"><g clip-path="url(#__lottie_element_428)" transform="matrix(0.8930061459541321,0,0,0.9699386358261108,240.22972106933594,825.661376953125)" opacity="0.2349693242996883" style="display: block;"><g transform="matrix(1,0,0,1,340,-275)" opacity="1" style="display: block;"><g opacity="1" transform="matrix(1,0,0,1,36,297)"><path fill="rgb(120,120,120)" fill-opacity="1" d=" M0,-17 C205.30679321289062,-17 372,-9.38230037689209 372,0 C372,9.38230037689209 205.30679321289062,17 0,17 C-205.30679321289062,17 -372,9.38230037689209 -372,0 C-372,-9.38230037689209 -205.30679321289062,-17 0,-17z"></path><path stroke-linecap="butt" stroke-linejoin="miter" fill-opacity="0" stroke-miterlimit="4" stroke="rgb(255,255,255)" stroke-opacity="1" stroke-width="2" d=" M0,-17 C205.30679321289062,-17 372,-9.38230037689209 372,0 C372,9.38230037689209 205.30679321289062,17 0,17 C-205.30679321289062,17 -372,9.38230037689209 -372,0 C-372,-9.38230037689209 -205.30679321289062,-17 0,-17z"></path></g></g></g><g clip-path="url(#__lottie_element_411)" transform="matrix(0.6440074443817139,0.022489234805107117,-0.022489234805107117,0.6440074443817139,238.38015747070312,248.09176635742188)" opacity="1" style="display: block;"><g transform="matrix(1,0,0,1,0,0)" opacity="1" style="display: block;"><g opacity="1" transform="matrix(0.9695460200309753,-0.24490924179553986,0.24490924179553986,0.9695460200309753,188.81765747070312,519.8477172851562)"><g opacity="1" transform="matrix(0.4455917179584503,0.781951367855072,-0.781951367855072,0.4455917179584503,587.1151123046875,101.16854095458984)"><g opacity="1" transform="matrix(1,0,0,1,164.5500030517578,118.3499984741211)"><path fill="rgb(227,225,219)" fill-opacity="1" d=" M-162.3800048828125,12.600000381469727 C-164.2989959716797,52.433998107910156 -112.4280014038086,115.70899963378906 -32.349998474121094,117.11000061035156 C24.665000915527344,118.10199737548828 53.88600158691406,93.82599639892578 112.44000244140625,98.77999877929688 C135.72999572753906,101.47000122070312 164.2949981689453,86.01399993896484 155.8800048828125,68.43000030517578 C145.81900024414062,47.39500045776367 96.3740005493164,32.303001403808594 47.630001068115234,36.880001068115234 C33.64099884033203,-0.4909999966621399 25.11400032043457,-32.487998962402344 -10.739999771118164,-64.77999877929688 C-69.95500183105469,-118.10099792480469 -159.427001953125,-48.483001708984375 -162.3800048828125,12.600000381469727 C-162.3800048828125,12.600000381469727 -162.3800048828125,12.600000381469727 -162.3800048828125,12.600000381469727z"></path></g><g opacity="1" transform="matrix(1,0,0,1,288.4800109863281,204.33999633789062)"><path fill="rgb(245,242,236)" fill-opacity="1" d=" M-49.9900016784668,-49.650001525878906 C-31.63599967956543,-50.70600128173828 10.505000114440918,-41.02199935913086 21.770000457763672,-36.369998931884766 C40.595001220703125,-28.59600067138672 62.99300003051758,14.14900016784668 63.209999084472656,22.829999923706055 C63.388999938964844,30.049999237060547 58.13600158691406,37.018001556396484 51.040000915527344,31.950000762939453 C51.54800033569336,39.04499816894531 44.452999114990234,42.595001220703125 36.849998474121094,38.540000915527344 C30.26300048828125,50.707000732421875 10.652999877929688,42.650001525878906 7.289999961853027,39.209999084472656 C2.6640000343322754,34.474998474121094 -1.5,13.869999885559082 -1.5,13.869999885559082 C-1.5,13.869999885559082 -20.860000610351562,13.050000190734863 -20.860000610351562,13.050000190734863 C-22.937000274658203,13.081999778747559 -24.996000289916992,13.022000312805176 -27.020000457763672,12.789999961853027 C-27.20800018310547,12.774999618530273 -27.382999420166016,12.776000022888184 -27.56999969482422,12.760000228881836 C-27.56999969482422,12.760000228881836 -63.38999938964844,-29.618999481201172 -49.9900016784668,-49.650001525878906 C-49.9900016784668,-49.650001525878906 -49.9900016784668,-49.650001525878906 -49.9900016784668,-49.650001525878906z"></path></g><g opacity="1" transform="matrix(1,0,0,1,316.3800048828125,208.3699951171875)"><path fill="rgb(240,223,208)" fill-opacity="1" d=" M-7.369999885559082,-40.880001068115234 C-6.933000087738037,-40.7239990234375 -6.521999835968018,-40.5620002746582 -6.139999866485596,-40.400001525878906 C12.685999870300293,-32.62699890136719 35.082000732421875,10.109000205993652 35.29999923706055,18.790000915527344 C35.479000091552734,26.01099967956543 30.236000061035156,32.97800064086914 23.139999389648438,27.90999984741211 C23.648000717163086,35.00600051879883 16.554000854492188,38.555999755859375 8.949999809265137,34.5 C6.638999938964844,38.770999908447266 2.7139999866485596,40.51499938964844 -1.5399999618530273,40.880001068115234 C-21.33300018310547,13.784000396728516 -35.48500061035156,-27.48900032043457 -7.369999885559082,-40.880001068115234 C-7.369999885559082,-40.880001068115234 -7.369999885559082,-40.880001068115234 -7.369999885559082,-40.880001068115234z"></path></g><g opacity="1" transform="matrix(1,0,0,1,315.70001220703125,197)"><path fill="rgb(87,72,4)" fill-opacity="1" d=" M-10.979999542236328,3.069999933242798 C-8.836000442504883,10.75 -2.187000036239624,15.605999946594238 3.880000114440918,13.920000076293945 C9.946999549865723,12.223999977111816 13.130999565124512,4.619999885559082 10.989999771118164,-3.059999942779541 C8.845999717712402,-10.741000175476074 2.184999942779541,-15.604999542236328 -3.880000114440918,-13.90999984741211 C-9.946999549865723,-12.220000267028809 -13.12399959564209,-4.617000102996826 -10.979999542236328,3.069999933242798 C-10.979999542236328,3.069999933242798 -10.979999542236328,3.069999933242798 -10.979999542236328,3.069999933242798z"></path></g><g opacity="1" transform="matrix(1,0,0,1,316.5899963378906,232.10000610351562)"><path fill="rgb(87,72,4)" fill-opacity="1" d=" M-4.829999923706055,1.909999966621399 C-2.9489998817443848,6.658999919891357 0.7409999966621399,9.657999992370605 3.4100000858306885,8.600000381469727 C6.072999954223633,7.544000148773193 6.710999965667725,2.8389999866485596 4.829999923706055,-1.909999966621399 C2.9489998817443848,-6.6570000648498535 -0.7419999837875366,-9.657999992370605 -3.4100000858306885,-8.600000381469727 C-6.077000141143799,-7.547999858856201 -6.711999893188477,-2.8359999656677246 -4.829999923706055,1.909999966621399 C-4.829999923706055,1.909999966621399 -4.829999923706055,1.909999966621399 -4.829999923706055,1.909999966621399z"></path></g><g opacity="1" transform="matrix(1,0,0,1,329.3800048828125,227.6699981689453)"><path fill="rgb(87,72,4)" fill-opacity="1" d=" M-4.829999923706055,1.9199999570846558 C-2.9489998817443848,6.665999889373779 0.7409999966621399,9.654000282287598 3.4100000858306885,8.600000381469727 C6.074999809265137,7.540999889373779 6.710999965667725,2.8340001106262207 4.829999923706055,-1.9199999570846558 C2.9489998817443848,-6.665999889373779 -0.7429999709129333,-9.654999732971191 -3.4100000858306885,-8.600000381469727 C-6.077000141143799,-7.545000076293945 -6.7129998207092285,-2.8299999237060547 -4.829999923706055,1.9199999570846558 C-4.829999923706055,1.9199999570846558 -4.829999923706055,1.9199999570846558 -4.829999923706055,1.9199999570846558z"></path></g><g opacity="1" transform="matrix(1,0,0,1,340.1499938964844,222.22000122070312)"><path fill="rgb(87,72,4)" fill-opacity="1" d=" M-4.829999923706055,1.909999966621399 C-2.9489998817443848,6.659999847412109 0.7409999966621399,9.659000396728516 3.4100000858306885,8.600000381469727 C6.072999954223633,7.545000076293945 6.710999965667725,2.8340001106262207 4.829999923706055,-1.9199999570846558 C2.9489998817443848,-6.665999889373779 -0.7419999837875366,-9.654000282287598 -3.4100000858306885,-8.600000381469727 C-6.077000141143799,-7.544000148773193 -6.711999893188477,-2.8359999656677246 -4.829999923706055,1.909999966621399 C-4.829999923706055,1.909999966621399 -4.829999923706055,1.909999966621399 -4.829999923706055,1.909999966621399z"></path></g></g><g opacity="1" transform="matrix(-0.5364334583282471,-0.8439426422119141,0.8439426422119141,-0.5364334583282471,131.72406005859375,412.7720947265625)"><g opacity="1" transform="matrix(1,0,0,1,125.54000091552734,70.33000183105469)"><path fill="rgb(245,242,236)" fill-opacity="1" d=" M47.779998779296875,-57.0099983215332 C-5.080999851226807,-46.832000732421875 -58.13600158691406,-30.395999908447266 -95.5,-33.709999084472656 C-124.33699798583984,-19.93899917602539 -125.29199981689453,5.074999809265137 -99.91000366210938,16.100000381469727 C-74.52100372314453,27.145999908447266 -9.142000198364258,70.08899688720703 57.66999816894531,61.11000061035156 C125.29100036621094,52.013999938964844 115.63200378417969,-70.08100128173828 47.779998779296875,-57.0099983215332 C47.779998779296875,-57.0099983215332 47.779998779296875,-57.0099983215332 47.779998779296875,-57.0099983215332z"></path></g><g opacity="1" transform="matrix(1,0,0,1,53.599998474121094,60.66999816894531)"><path fill="rgb(245,242,236)" fill-opacity="1" d=" M-27.969999313354492,25.770000457763672 C-24.39699935913086,27.323999404907227 -20.003999710083008,29.524999618530273 -14.960000038146973,32.11000061035156 C11.017999649047852,25.966999053955078 36.284000396728516,8.871999740600586 50.72999954223633,-12.449999809265137 C53.34600067138672,-18.465999603271484 52.534000396728516,-25.628999710083008 49.33000183105469,-32.11000061035156 C22.06999969482422,-26.343000411987305 -3.0880000591278076,-22.226999282836914 -23.549999237060547,-24.040000915527344 C-52.387001037597656,-10.267999649047852 -53.35100173950195,14.744999885559082 -27.969999313354492,25.770000457763672 C-27.969999313354492,25.770000457763672 -27.969999313354492,25.770000457763672 -27.969999313354492,25.770000457763672z"></path></g></g><g opacity="1" transform="matrix(-0.5364334583282471,-0.8439426422119141,0.8439426422119141,-0.5364334583282471,131.72406005859375,412.7720947265625)"><g opacity="1" transform="matrix(0.9164042472839355,0.4002540111541748,-0.4002540111541748,0.9164042472839355,0.5635747909545898,6.359714508056641)"><g opacity="1" transform="matrix(1,0,0,1,28,14.119999885559082)"><path fill="rgb(245,242,236)" fill-opacity="1" d=" M5.380000114440918,13.430000305175781 C-9.571999549865723,13.159000396728516 -20.952999114990234,10.1899995803833 -23.420000076293945,2.4700000286102295 C-25.893999099731445,-5.236999988555908 -21.19700050354004,-9.010000228881836 -6.610000133514404,-11.430000305175781 C8.092000007629395,-13.869999885559082 20.929000854492188,-1.5579999685287476 23.399999618530273,6.150000095367432 C25.891000747680664,13.869000434875488 20.104999542236328,13.67300033569336 5.380000114440918,13.430000305175781 C5.380000114440918,13.430000305175781 5.380000114440918,13.430000305175781 5.380000114440918,13.430000305175781z"></path></g><g opacity="1" transform="matrix(1,0,0,1,29.940000534057617,31.670000076293945)"><path fill="rgb(245,242,236)" fill-opacity="1" d=" M4.940000057220459,13.869999885559082 C-9.659000396728516,18.388999938964844 -21.58099937438965,6.747000217437744 -24.1299991607666,-1.1799999475479126 C-26.68400001525879,-9.119000434875488 -20.469999313354492,-17.259000778198242 -5.239999771118164,-17.799999237060547 C10.51200008392334,-18.3799991607666 21.573999404907227,-10.87399959564209 24.1200008392334,-2.940000057220459 C26.677000045776367,4.995999813079834 19.554000854492188,9.378999710083008 4.940000057220459,13.869999885559082 C4.940000057220459,13.869999885559082 4.940000057220459,13.869999885559082 4.940000057220459,13.869999885559082z"></path></g><g opacity="1" transform="matrix(1,0,0,1,31.020000457763672,43.310001373291016)"><path fill="rgb(245,242,236)" fill-opacity="1" d=" M3.2200000286102295,14.84000015258789 C-11.928000450134277,16.56599998474121 -18.30699920654297,15.347000122070312 -22.540000915527344,1.340000033378601 C-24.95199966430664,-6.650000095367432 -15.220999717712402,-13.140999794006348 -0.07999999821186066,-14.84000015258789 C15.04800033569336,-16.56100082397461 23.871000289916992,-12.562000274658203 24.399999618530273,-4.199999809265137 C24.950000762939453,4.135000228881836 18.344999313354492,13.128999710083008 3.2200000286102295,14.84000015258789 C3.2200000286102295,14.84000015258789 3.2200000286102295,14.84000015258789 3.2200000286102295,14.84000015258789z"></path></g><g opacity="1" transform="matrix(1,0,0,1,35.95000076293945,59.2599983215332)"><path fill="rgb(245,242,236)" fill-opacity="1" d=" M13.170000076293945,14.470000267028809 C-1.4329999685287476,18.708999633789062 -20.04599952697754,12.00100040435791 -22.309999465942383,3.9800000190734863 C-24.56399917602539,-4.021999835968018 -15.229000091552734,-11.21500015258789 -0.49000000953674316,-15.289999961853027 C4.546999931335449,-16.68600082397461 15.519000053405762,-18.714000701904297 19.459999084472656,-11.319999694824219 C24.566999435424805,-1.7380000352859497 23.18400001525879,11.543999671936035 13.170000076293945,14.470000267028809 C13.170000076293945,14.470000267028809 13.170000076293945,14.470000267028809 13.170000076293945,14.470000267028809z"></path></g><g opacity="1" transform="matrix(1,0,0,1,8.399999618530273,10.9399995803833)"><path fill="rgb(87,72,4)" fill-opacity="1" d=" M-1.6699999570846558,2.9800000190734863 C-5.071000099182129,4.705999851226807 -8.152000427246094,-2.5859999656677246 -4.5,-3.6500000953674316 C-0.8410000205039978,-4.716000080108643 6.334000110626221,-4.60099983215332 7.239999771118164,-1.7999999523162842 C8.149999618530273,0.996999979019165 1.569000005722046,1.340000033378601 -1.6699999570846558,2.9800000190734863 C-1.6699999570846558,2.9800000190734863 -1.6699999570846558,2.9800000190734863 -1.6699999570846558,2.9800000190734863z"></path></g><g opacity="1" transform="matrix(1,0,0,1,9.670000076293945,27.889999389648438)"><path fill="rgb(87,72,4)" fill-opacity="1" d=" M-2.7300000190734863,3.8299999237060547 C-6.388999938964844,4.900000095367432 -8.958999633789062,-2.7939999103546143 -5.300000190734863,-3.8499999046325684 C-1.6440000534057617,-4.896999835968018 7.140999794006348,-4.098999977111816 8.050000190734863,-1.309999942779541 C8.960000038146973,1.4989999532699585 0.9369999766349792,2.7780001163482666 -2.7300000190734863,3.8299999237060547 C-2.7300000190734863,3.8299999237060547 -2.7300000190734863,3.8299999237060547 -2.7300000190734863,3.8299999237060547z"></path></g><g opacity="1" transform="matrix(1,0,0,1,12.399999618530273,39.380001068115234)"><path fill="rgb(87,72,4)" fill-opacity="1" d=" M-2.259999990463257,3.700000047683716 C-5.9079999923706055,4.767000198364258 -8.729000091552734,-2.634999990463257 -5.070000171661377,-3.7100000381469727 C-1.4179999828338623,-4.7729997634887695 6.916999816894531,-3.428999900817871 7.820000171661377,-0.6200000047683716 C8.732999801635742,2.1649999618530273 1.3960000276565552,2.634000062942505 -2.259999990463257,3.700000047683716 C-2.259999990463257,3.700000047683716 -2.259999990463257,3.700000047683716 -2.259999990463257,3.700000047683716z"></path></g><g opacity="1" transform="matrix(1,0,0,1,16.299999237060547,59.119998931884766)"><path fill="rgb(87,72,4)" fill-opacity="1" d=" M-1.2799999713897705,3.759999990463257 C-4.940000057220459,4.815999984741211 -7.835999965667725,-2.6740000247955322 -4.179999828338623,-3.759999990463257 C-0.5210000276565552,-4.811999797821045 6.026000022888184,-2.7130000591278076 6.920000076293945,0.10000000149011612 C7.839000225067139,2.8929998874664307 2.380000114440918,2.690000057220459 -1.2799999713897705,3.759999990463257 C-1.2799999713897705,3.759999990463257 -1.2799999713897705,3.759999990463257 -1.2799999713897705,3.759999990463257z"></path></g></g></g></g></g><g transform="matrix(1,0,0,1,0,0)" opacity="1" style="display: block;"><g opacity="1" transform="matrix(0.9695460200309753,-0.24490924179553986,0.24490924179553986,0.9695460200309753,188.81765747070312,519.8477172851562)"><g opacity="1" transform="matrix(1,0,0,1,328.42999267578125,166.61000061035156)"><path fill="rgb(227,225,219)" fill-opacity="1" d=" M-161.11000061035156,-160.49000549316406 C-161.11000061035156,-160.49000549316406 -138.98399353027344,-166.3509979248047 -89.58999633789062,-158.77999877929688 C-64.13899993896484,-154.8820037841797 -30.097999572753906,-136.71600341796875 -6.050000190734863,-131.02000427246094 C22.128000259399414,-124.35299682617188 59.10599899291992,-127.18299865722656 69.94000244140625,-125.9800033569336 C107.95500183105469,-121.77200317382812 198.11099243164062,-109.69200134277344 240.58999633789062,-83.81999969482422 C291.1409912109375,-53.03200149536133 328.1860046386719,67.89399719238281 233.17999267578125,105.33999633789062 C126.05000305175781,147.56399536132812 -114.5510025024414,166.35400390625 -214.97000122070312,93.01000213623047 C-328.18701171875,10.322999954223633 -232.27200317382812,-121.54900360107422 -161.11000061035156,-160.49000549316406 C-161.11000061035156,-160.49000549316406 -161.11000061035156,-160.49000549316406 -161.11000061035156,-160.49000549316406z"></path></g><g opacity="1" transform="matrix(1,0,0,1,315.6300048828125,282.29998779296875)"><path fill="rgb(227,225,219)" fill-opacity="1" d=" M-205.00999450683594,-26.239999771118164 C-199.3699951171875,-5.502999782562256 -175.05799865722656,25.764999389648438 -133.5,27.84000015258789 C-134.02999877929688,24.808000564575195 -135.21600341796875,12.496999740600586 -135.17999267578125,10.6899995803833 C-129.83799743652344,16.40399932861328 -81.05599975585938,44.09000015258789 -86.08000183105469,23.18000030517578 C-73.32599639892578,38.119998931884766 -34.742000579833984,44.513999938964844 -11.979999542236328,41.36000061035156 C-14.812000274658203,38.20199966430664 -20.375,30.283000946044922 -20.6299991607666,25.90999984741211 C-3.740999937057495,36.60300064086914 48.65599822998047,41.928001403808594 76.37999725341797,38.790000915527344 C73.47699737548828,32.07500076293945 66.7030029296875,29.545000076293945 68.16999816894531,25.469999313354492 C90.21399688720703,28.69099998474121 121.88600158691406,28.577999114990234 176.6300048828125,21.549999237060547 C205.00799560546875,17.902000427246094 187.97799682617188,-44.51599884033203 169.6300048828125,-22.829999923706055 C164.16600036621094,-16.35700035095215 81.2490005493164,7.320000171661377 39.77000045776367,8.270000457763672 C-162.97000122070312,12.909000396728516 -169.281005859375,-14.989999771118164 -187.2100067138672,-27.549999237060547 C-187.2100067138672,-27.549999237060547 -205.00999450683594,-26.239999771118164 -205.00999450683594,-26.239999771118164 C-205.00999450683594,-26.239999771118164 -205.00999450683594,-26.239999771118164 -205.00999450683594,-26.239999771118164z"></path></g><g opacity="1" transform="matrix(1,0,0,1,341.8299865722656,97.83999633789062)"><path fill="rgb(227,225,219)" fill-opacity="1" d=" M-87.80000305175781,26.049999237060547 C-94.36599731445312,56.659000396728516 -119.08699798583984,68.60800170898438 -142.63999938964844,84.25 C-100.28700256347656,94.2760009765625 -64.03900146484375,62.7599983215332 -48.95000076293945,58.52000045776367 C-35.387001037597656,54.72700119018555 -6.383999824523926,89.80999755859375 68.72000122070312,76.11000061035156 C124.6520004272461,65.90399932861328 159.3249969482422,0.7379999756813049 160.3800048828125,-39.689998626708984 C121.40399932861328,-49.268001556396484 79.47799682617188,-54.685001373291016 56.540000915527344,-57.220001220703125 C45.70600128173828,-58.42300033569336 8.73799991607666,-55.59199905395508 -19.440000534057617,-62.2599983215332 C-43.487998962402344,-67.95500183105469 -77.53800201416016,-86.12100219726562 -102.98999786376953,-90.0199966430664 C-130.0260009765625,-94.16000366210938 -148.83999633789062,-94.2760009765625 -160.3800048828125,-93.52999877929688 C-119.75599670410156,-67.09600067138672 -83.95999908447266,-26.82900047302246 -87.80000305175781,26.049999237060547 C-87.80000305175781,26.049999237060547 -87.80000305175781,26.049999237060547 -87.80000305175781,26.049999237060547z"></path></g><g opacity="1" transform="matrix(1,0,0,1,601.3800048828125,179.27000427246094)"><path fill="rgb(227,225,219)" fill-opacity="1" d=" M-15.960000038146973,-83.36000061035156 C-44.349998474121094,-90.89299774169922 -46.36800003051758,-47.637001037597656 -44.34000015258789,36.15999984741211 C-44.073001861572266,47.17300033569336 1.7109999656677246,79.89199829101562 0.9300000071525574,90.88999938964844 C7.252999782562256,86.89299774169922 15.756999969482422,75.96900177001953 22.549999237060547,84.80999755859375 C23.965999603271484,63.52399826049805 24.889999389648438,49.849998474121094 24.889999389648438,49.849998474121094 C24.889999389648438,49.849998474121094 31.81599998474121,58.25400161743164 34.86000061035156,61.959999084472656 C38.60200119018555,46.50199890136719 34.19599914550781,37.15999984741211 29.959999084472656,27.350000381469727 C32.74100112915039,26.211999893188477 33.555999755859375,29.916000366210938 36.310001373291016,33.939998626708984 C43.10300064086914,9.418000221252441 30.81999969482422,-6.710000038146973 30.81999969482422,-6.710000038146973 C30.81999969482422,-6.710000038146973 36.757999420166016,0.39399999380111694 41.16999816894531,4.940000057220459 C46.37099838256836,-17.503000259399414 30.926000595092773,-35.47600173950195 27.639999389648438,-41.869998931884766 C30.69099998474121,-40.292999267578125 33.35499954223633,-37.242000579833984 36.439998626708984,-34.47999954223633 C34.88800048828125,-62.85499954223633 0,-75.66500091552734 -15.960000038146973,-83.36000061035156 C-15.960000038146973,-83.36000061035156 -15.960000038146973,-83.36000061035156 -15.960000038146973,-83.36000061035156z"></path></g></g></g><g transform="matrix(1,0,0,1,0,0)" opacity="1" style="display: block;"><g opacity="1" transform="matrix(0.9695460200309753,-0.24490924179553986,0.24490924179553986,0.9695460200309753,188.81765747070312,519.8477172851562)"><g opacity="1" transform="matrix(0.9886332154273987,-0.15034739673137665,0.15034739673137665,0.9886332154273987,513.578125,63.71419906616211)"><g opacity="1" transform="matrix(1,0,0,1,76.75,60.5)"><path fill="rgb(227,225,219)" fill-opacity="1" d=" M-76.5,-60.25 C-28.625,-48.21799850463867 38.952999114990234,-59.512001037597656 65.44000244140625,-7.630000114440918 C72.1240005493164,5.451000213623047 74.53099822998047,20.165000915527344 76.5,34.58000183105469 C73.30400085449219,31.417999267578125 68.82599639892578,27.204999923706055 65.27999877929688,25.059999465942383 C66.00599670410156,37.14699935913086 62.400001525878906,47.965999603271484 64.08999633789062,60.25 C53.198001861572266,51.46799850463867 39.91699981689453,39.020999908447266 39.04999923706055,23.8700008392334 C37.555999755859375,32.94900131225586 38.689998626708984,44.66400146484375 43.06999969482422,52.70000076293945 C19.266000747680664,46.53499984741211 -10.982999801635742,22.898000717163086 -22.40999984741211,3.0199999809265137 C-31.117000579833984,-12.119999885559082 -38.694000244140625,-27.97100067138672 -52.09000015258789,-39.900001525878906 C-52.09000015258789,-39.900001525878906 -76.5,-60.25 -76.5,-60.25 C-76.5,-60.25 -76.5,-60.25 -76.5,-60.25z"></path></g></g><g opacity="1" transform="matrix(0.9962836503982544,0.08613293617963791,-0.08613293617963791,0.9962836503982544,-65.62393951416016,-104.05184173583984)"><g opacity="1" transform="matrix(1,0,0,1,145.16000366210938,186.92999267578125)"><path fill="rgb(227,225,219)" fill-opacity="1" d=" M142.92999267578125,-126.91999816894531 C138.64300537109375,-160.11300659179688 88.75800323486328,-171.78700256347656 73.9000015258789,-186.67999267578125 C73.9000015258789,-186.67999267578125 -109.45899963378906,-143.2830047607422 -111.12999725341797,-114.86000061035156 C-112.80899810791016,-86.43499755859375 -144.91000366210938,-42.380001068115234 -144.91000366210938,-42.380001068115234 C-144.91000366210938,-42.380001068115234 -140.51300048828125,-35.38399887084961 -120.66999816894531,-45.5099983215332 C-142.7169952392578,-13.291999816894531 -129.23699951171875,9.826000213623047 -131.41000366210938,39.58000183105469 C-122.21299743652344,29.506999969482422 -117.63500213623047,23.344999313354492 -115.77999877929688,12.010000228881836 C-116.8550033569336,21.957000732421875 -120.6050033569336,40.10100173950195 -119.80000305175781,52.369998931884766 C-118.77999877929688,67.6709976196289 -105.69999694824219,83.55999755859375 -105.69999694824219,83.55999755859375 C-105.69999694824219,83.55999755859375 -106.90299987792969,70.3290023803711 -101.48999786376953,57.349998474121094 C-106.22100067138672,78.15399932861328 -66.20700073242188,136.10699462890625 -47.04999923706055,155.1999969482422 C-48.768001556396484,137.71499633789062 -48.37200164794922,141.75399780273438 -50.779998779296875,131.1199951171875 C-27.82699966430664,157.38400268554688 33.45000076293945,186.67999267578125 33.45000076293945,186.67999267578125 C33.45000076293945,186.67999267578125 14.654999732971191,148.02699279785156 14.270000457763672,109.29000091552734 C13.760000228881836,58.775001525878906 18.447999954223633,68.73200225830078 46.91999816894531,40.63999938964844 C61.518001556396484,26.260000228881836 66.33000183105469,15.984999656677246 67.56999969482422,9.34000015258789 C67.58100128173828,13.267000198364258 67.25800323486328,18.547000885009766 66.25,25.360000610351562 C86.97100067138672,9.192999839782715 98.61000061035156,-38.79999923706055 98.61000061035156,-38.79999923706055 C98.61000061035156,-38.79999923706055 99.19400024414062,-32.9109992980957 101.83000183105469,-21.270000457763672 C109.01499938964844,-33.10599899291992 110.80599975585938,-41.44599914550781 110.72000122070312,-47.02000045776367 C111.33200073242188,-44.69200134277344 112.01200103759766,-41.94900131225586 112.7300033569336,-38.70000076293945 C127.09300231933594,-61.5880012512207 143.07400512695312,-97.73400115966797 123.76000213623047,-128.42999267578125 C126.06300354003906,-139.21600341796875 144.91000366210938,-118.42900085449219 142.92999267578125,-126.91999816894531 C142.92999267578125,-126.91999816894531 142.92999267578125,-126.91999816894531 142.92999267578125,-126.91999816894531z"></path></g><g opacity="1" transform="matrix(1,0,0,1,67.37000274658203,205.39999389648438)"><path fill="rgb(227,225,219)" fill-opacity="1" d=" M3.490000009536743,-46.54999923706055 C4.956999778747559,-47.73500061035156 7.980000019073486,-46.694000244140625 7.090000152587891,-44.459999084472656 C2.453000068664551,-32.82899856567383 -5.223999977111816,-20.30500030517578 -2.7300000190734863,-7.550000190734863 C-2.4240000247955322,-7.734000205993652 -2.127000093460083,-7.921999931335449 -1.7699999809265137,-8.140000343322754 C1.4190000295639038,-10.11400032043457 6.866000175476074,-7.61899995803833 6.360000133514404,-3.4700000286102295 C4.26200008392334,13.710000038146973 12.062999725341797,28.37700080871582 15.84000015258789,44.709999084472656 C16.236000061035156,46.404998779296875 14.170999526977539,47.736000061035156 12.880000114440918,46.43000030517578 C2.1559998989105225,35.61600112915039 -3.7739999294281006,21.674999237060547 -4.610000133514404,6.820000171661377 C-6.955999851226807,6.988999843597412 -9.28600025177002,5.433000087738037 -10.220000267028809,3 C-16.239999771118164,-12.597999572753906 -9.480999946594238,-36.077999114990234 3.490000009536743,-46.54999923706055 C3.490000009536743,-46.54999923706055 3.490000009536743,-46.54999923706055 3.490000009536743,-46.54999923706055z"></path></g></g><g opacity="1" transform="matrix(0.30781811475753784,0.8457233309745789,-0.8457233309745789,0.30781811475753784,550.3268432617188,109.66397094726562)"><g opacity="1" transform="matrix(1,0,0,1,155.6999969482422,149.1300048828125)"><path fill="rgb(227,225,219)" fill-opacity="1" d=" M-146.7899932861328,11.300000190734863 C-155.4429931640625,50.224998474121094 -115.06199645996094,121.3759994506836 -36.380001068115234,136.33999633789062 C19.638999938964844,146.9969940185547 69.10099792480469,148.88299560546875 112.3499984741211,133.67999267578125 C134.8489990234375,140.28900146484375 155.44200134277344,141.64999389648438 150.1300048828125,122.88999938964844 C143.7790069580078,100.44999694824219 104.86900329589844,74.59500122070312 56.04999923706055,70.8499984741211 C48.60499954223633,31.634000778198242 15.376999855041504,-48.380001068115234 -14.479999542236328,-86.27999877929688 C-63.79899978637695,-148.8769989013672 -133.5279998779297,-48.39400100708008 -146.7899932861328,11.300000190734863 C-146.7899932861328,11.300000190734863 -146.7899932861328,11.300000190734863 -146.7899932861328,11.300000190734863z"></path></g><g opacity="1" transform="matrix(1,0,0,1,281.75,273.8500061035156)"><path fill="rgb(245,242,236)" fill-opacity="1" d=" M-55.95000076293945,-52.540000915527344 C-55.95000076293945,-52.540000915527344 19.35099983215332,-39.555999755859375 31.520000457763672,-34.529998779296875 C50.345001220703125,-26.753000259399414 72.74199676513672,15.979999542236328 72.95999908447266,24.65999984741211 C73.13899993896484,31.885000228881836 67.88500213623047,38.856998443603516 60.790000915527344,33.790000915527344 C61.29800033569336,40.88600158691406 54.202999114990234,44.43600082397461 46.599998474121094,40.380001068115234 C40.01100158691406,52.542999267578125 20.402000427246094,44.48899841308594 17.040000915527344,41.04999923706055 C12.413999557495117,36.31100082397461 8.25,15.710000038146973 8.25,15.710000038146973 C8.25,15.710000038146973 -58.650001525878906,18.40999984741211 -58.650001525878906,18.40999984741211 C-58.40700149536133,19.57900047302246 -73.13700103759766,-50.09700012207031 -55.95000076293945,-52.540000915527344 C-55.95000076293945,-52.540000915527344 -55.95000076293945,-52.540000915527344 -55.95000076293945,-52.540000915527344z"></path></g><g opacity="1" transform="matrix(1,0,0,1,319.4100036621094,279.7200012207031)"><path fill="rgb(240,223,208)" fill-opacity="1" d=" M-7.369999885559082,-40.880001068115234 C-6.933000087738037,-40.7239990234375 -6.520999908447266,-40.55799865722656 -6.139999866485596,-40.400001525878906 C12.685999870300293,-32.62300109863281 35.082000732421875,10.109999656677246 35.29999923706055,18.790000915527344 C35.479000091552734,26.014999389648438 30.235000610351562,32.97700119018555 23.139999389648438,27.90999984741211 C23.648000717163086,35.00600051879883 16.554000854492188,38.564998626708984 8.949999809265137,34.5099983215332 C6.638999938964844,38.777000427246094 2.7139999866485596,40.51599884033203 -1.5399999618530273,40.880001068115234 C-21.333999633789062,13.78499984741211 -35.48500061035156,-27.48900032043457 -7.369999885559082,-40.880001068115234 C-7.369999885559082,-40.880001068115234 -7.369999885559082,-40.880001068115234 -7.369999885559082,-40.880001068115234z"></path></g><g opacity="1" transform="matrix(1,0,0,1,318.7300109863281,268.3599853515625)"><path fill="rgb(87,72,4)" fill-opacity="1" d=" M-10.979999542236328,3.069999933242798 C-8.836000442504883,10.755000114440918 -2.187000036239624,15.605999946594238 3.880000114440918,13.920000076293945 C9.946000099182129,12.225000381469727 13.130999565124512,4.619999885559082 10.989999771118164,-3.059999942779541 C8.845999717712402,-10.744999885559082 2.184999942779541,-15.604000091552734 -3.880000114440918,-13.90999984741211 C-9.946999549865723,-12.218999862670898 -13.12399959564209,-4.613999843597412 -10.979999542236328,3.069999933242798 C-10.979999542236328,3.069999933242798 -10.979999542236328,3.069999933242798 -10.979999542236328,3.069999933242798z"></path></g><g opacity="1" transform="matrix(1,0,0,1,319.6099853515625,303.45001220703125)"><path fill="rgb(87,72,4)" fill-opacity="1" d=" M-4.829999923706055,1.9199999570846558 C-2.9489998817443848,6.666999816894531 0.7409999966621399,9.654000282287598 3.4100000858306885,8.600000381469727 C6.072999954223633,7.539999961853027 6.710999965667725,2.8399999141693115 4.829999923706055,-1.909999966621399 C2.9489998817443848,-6.658999919891357 -0.7429999709129333,-9.654999732971191 -3.4100000858306885,-8.600000381469727 C-6.077000141143799,-7.545000076293945 -6.7129998207092285,-2.8289999961853027 -4.829999923706055,1.9199999570846558 C-4.829999923706055,1.9199999570846558 -4.829999923706055,1.9199999570846558 -4.829999923706055,1.9199999570846558z"></path></g><g opacity="1" transform="matrix(1,0,0,1,332.4100036621094,299.0199890136719)"><path fill="rgb(87,72,4)" fill-opacity="1" d=" M-4.829999923706055,1.909999966621399 C-2.9489998817443848,6.656000137329102 0.7409999966621399,9.659000396728516 3.4100000858306885,8.600000381469727 C6.076000213623047,7.545000076293945 6.710999965667725,2.8299999237060547 4.829999923706055,-1.9199999570846558 C2.950000047683716,-6.665999889373779 -0.7429999709129333,-9.657999992370605 -3.4100000858306885,-8.600000381469727 C-6.077000141143799,-7.548999786376953 -6.7129998207092285,-2.8359999656677246 -4.829999923706055,1.909999966621399 C-4.829999923706055,1.909999966621399 -4.829999923706055,1.909999966621399 -4.829999923706055,1.909999966621399z"></path></g><g opacity="1" transform="matrix(1,0,0,1,343.17999267578125,293.57000732421875)"><path fill="rgb(87,72,4)" fill-opacity="1" d=" M-4.829999923706055,1.909999966621399 C-2.9489998817443848,6.656000137329102 0.7400000095367432,9.657999992370605 3.4100000858306885,8.600000381469727 C6.072999954223633,7.545000076293945 6.710999965667725,2.8399999141693115 4.829999923706055,-1.909999966621399 C2.9489998817443848,-6.659999847412109 -0.7429999709129333,-9.659000396728516 -3.4100000858306885,-8.600000381469727 C-6.077000141143799,-7.548999786376953 -6.7129998207092285,-2.8359999656677246 -4.829999923706055,1.909999966621399 C-4.829999923706055,1.909999966621399 -4.829999923706055,1.909999966621399 -4.829999923706055,1.909999966621399z"></path></g></g><g opacity="1" transform="matrix(0.9962836503982544,0.08613293617963791,-0.08613293617963791,0.9962836503982544,-65.62393951416016,-104.05184173583984)"><g opacity="1" transform="matrix(1,0,0,1,-106.50999450683594,-99.32999420166016)"><g opacity="1" transform="matrix(0.9999703764915466,-0.0076999058946967125,0.0076999058946967125,0.9999703764915466,159.80519104003906,-71.43550109863281)"><g opacity="1" transform="matrix(1,0,0,1,117.5,73.3499984741211)"><path fill="rgb(227,225,219)" fill-opacity="1" d=" M-81.98999786376953,13.170000076293945 C-81.98999786376953,13.170000076293945 36.375999450683594,-25.702999114990234 55.709999084472656,-35.7599983215332 C75.04299926757812,-45.81700134277344 98.0770034790039,-73.0979995727539 107.66000366210938,-55.029998779296875 C117.25,-36.965999603271484 109.28500366210938,69.78099822998047 -3.9800000190734863,71.44000244140625 C-117.2490005493164,73.10099792480469 -81.98999786376953,13.170000076293945 -81.98999786376953,13.170000076293945 C-81.98999786376953,13.170000076293945 -81.98999786376953,13.170000076293945 -81.98999786376953,13.170000076293945z"></path></g></g></g><g opacity="1" transform="matrix(1,0,0,1,71.44999694824219,31.270000457763672)"><path fill="rgb(227,225,219)" fill-opacity="1" d=" M-158.92999267578125,-0.019999999552965164 C-158.92999267578125,-0.019999999552965164 -99.11699676513672,1.1200000047683716 -86.08999633789062,-10.550000190734863 C-73.20500183105469,-22.091999053955078 -65.74199676513672,-80.84400177001953 -42.4900016784668,-98.62999725341797 C-10.829999923706055,-122.8499984741211 45.04499816894531,-128.45599365234375 99.52999877929688,-94.19000244140625 C154.01499938964844,-59.928001403808594 170.93299865722656,48.95500183105469 116.08000183105469,84.43000030517578 C48.03099822998047,128.4600067138672 -118.21399688720703,101.02400207519531 -125.87000274658203,64.93000030517578 C-139.17799377441406,62.9900016784668 -170.9320068359375,38.77399826049805 -158.92999267578125,-0.019999999552965164 C-158.92999267578125,-0.019999999552965164 -158.92999267578125,-0.019999999552965164 -158.92999267578125,-0.019999999552965164z"></path></g><g opacity="1" transform="matrix(1,0,0,1,-25.75,89.20000457763672)"><path fill="rgb(227,225,219)" fill-opacity="1" d=" M40,13.119999885559082 C49.1150016784668,1.6929999589920044 46.53799819946289,-32.172000885009766 26.059999465942383,-20.3700008392334 C1.1690000295639038,-6.03000020980835 -25.80299949645996,4.447999954223633 -49.11000061035156,-5.139999866485596 C-41.9630012512207,2.0239999294281006 -33.89799880981445,6.229000091552734 -28.670000076293945,6.989999771118164 C-26.68899917602539,16.322999954223633 -14.092000007629395,25.077999114990234 4.659999847412109,32.16999816894531 C17.663000106811523,29.920000076293945 30.045000076293945,25.594999313354492 40,13.119999885559082 C40,13.119999885559082 40,13.119999885559082 40,13.119999885559082z"></path></g><g opacity="1" transform="matrix(1,0,0,1,-24.059999465942383,95.40999603271484)"><path fill="rgb(120,18,0)" fill-opacity="1" d=" M31.93000030517578,-15.520000457763672 C31.93000030517578,-15.520000457763672 23.381999969482422,14.309000015258789 2.299999952316284,15.15999984741211 C-6.685999870300293,15.520999908447266 -19.389999389648438,14.739999771118164 -19.389999389648438,14.739999771118164 C-19.389999389648438,14.739999771118164 -30.839000701904297,6.954999923706055 -31.93000030517578,2.3499999046325684 C-27.051000595092773,1.4889999628067017 -17.43400001525879,5.442999839782715 3.440000057220459,2.190000057220459 C22.683000564575195,-0.8050000071525574 31.93000030517578,-15.520000457763672 31.93000030517578,-15.520000457763672 C31.93000030517578,-15.520000457763672 31.93000030517578,-15.520000457763672 31.93000030517578,-15.520000457763672z"></path></g><g opacity="1" transform="matrix(1,0,0,1,122.54999542236328,13.260000228881836)"><path fill="rgb(245,242,236)" fill-opacity="1" d=" M-67.97000122070312,71.52999877929688 C-16.510000228881836,106.88999938964844 56.41899871826172,112.34200286865234 91.30000305175781,60.91999816894531 C121.10600280761719,16.979000091552734 85.63899993896484,-71.75299835205078 43.689998626708984,-87.3499984741211 C-23.503000259399414,-112.33499908447266 -46.40599822998047,-102.04100036621094 -76.36000061035156,-90.61000061035156 C-119.74400329589844,-47.27799987792969 -121.10199737548828,33.5880012512207 -67.97000122070312,71.52999877929688 C-67.97000122070312,71.52999877929688 -67.97000122070312,71.52999877929688 -67.97000122070312,71.52999877929688z"></path></g><g opacity="1" transform="matrix(1,0,0,1,50.9900016784668,15.200000762939453)"><path fill="rgb(227,225,219)" fill-opacity="1" d=" M27.690000534057617,22.5 C40.85300064086914,1.5470000505447388 30.586999893188477,-43.68899917602539 10.979999542236328,-43.11000061035156 C-18.83300018310547,-42.231998443603516 -40.856998443603516,7.423999786376953 -20.540000915527344,29.309999465942383 C-7.181000232696533,43.69300079345703 15.239999771118164,42.30400085449219 27.690000534057617,22.5 C27.690000534057617,22.5 27.690000534057617,22.5 27.690000534057617,22.5z"></path></g><g opacity="1" transform="matrix(1,0,0,1,-74.2699966430664,50.82999801635742)"><path fill="rgb(83,18,0)" fill-opacity="1" d=" M-2.2300000190734863,31.639999389648438 C-18.315000534057617,29.16900062561035 -31.9950008392334,-8.38700008392334 -17.06999969482422,-18.15999984741211 C3.5139999389648438,-31.632999420166016 31.989999771118164,-22.209999084472656 31.989999771118164,-22.209999084472656 C31.989999771118164,-22.209999084472656 20.3700008392334,18.304000854492188 -2.2300000190734863,31.639999389648438 C-2.2300000190734863,31.639999389648438 -2.2300000190734863,31.639999389648438 -2.2300000190734863,31.639999389648438z"></path></g><g opacity="1" transform="matrix(1,0,0,1,49.310001373291016,10.5)"><path fill="rgb(0,0,0)" fill-opacity="1" d=" M16.43000030517578,10.739999771118164 C16.43000030517578,10.739999771118164 13.734999656677246,-7.988999843597412 0.6899999976158142,-9.359999656677246 C-12.355999946594238,-10.73900032043457 -16.43000030517578,7.289999961853027 -16.43000030517578,7.289999961853027 C-16.43000030517578,7.289999961853027 -9.550999641418457,-3.736999988555908 1.3799999952316284,-2.509999990463257 C12.347000122070312,-1.2760000228881836 16.43000030517578,10.739999771118164 16.43000030517578,10.739999771118164 C16.43000030517578,10.739999771118164 16.43000030517578,10.739999771118164 16.43000030517578,10.739999771118164z"></path></g><g opacity="1" transform="matrix(1,0,0,1,58.58000183105469,-30.43000030517578)"><path fill="rgb(245,242,236)" fill-opacity="1" d=" M-12.829999923706055,2.3299999237060547 C-12.0649995803833,6.925000190734863 -3.3320000171661377,9.321000099182129 2.9000000953674316,8.319999694824219 C9.104999542236328,7.308000087738037 13.5600004196167,2.760999917984009 12.800000190734863,-1.8300000429153442 C12.043000221252441,-6.422999858856201 6.413000106811523,-9.319999694824219 0.18000000715255737,-8.3100004196167 C-6.0329999923706055,-7.291999816894531 -13.562999725341797,-2.263000011444092 -12.829999923706055,2.3299999237060547 C-12.829999923706055,2.3299999237060547 -12.829999923706055,2.3299999237060547 -12.829999923706055,2.3299999237060547z"></path></g><g opacity="1" transform="matrix(1,0,0,1,-37.76000213623047,86.02000427246094)"><path fill="rgb(83,18,0)" fill-opacity="1" d=" M2.0299999713897705,15.220000267028809 C4.089000225067139,15.220000267028809 6.23199987411499,15.156999588012695 8.460000038146973,15.010000228881836 C41.117000579833984,12.86299991607666 45.59299850463867,-2.8989999294281006 45.77000045776367,-3.569999933242798 C46.176998138427734,-5.135000228881836 45.244998931884766,-6.730000019073486 43.68000030517578,-7.139999866485596 C42.111000061035156,-7.550000190734863 40.512001037597656,-6.61899995803833 40.099998474121094,-5.050000190734863 C40.07600021362305,-4.97599983215332 36.0890007019043,7.318999767303467 8.079999923706055,9.15999984741211 C-31.617000579833984,11.805999755859375 -39.78300094604492,-11.842000007629395 -40.11000061035156,-12.850000381469727 C-40.61199951171875,-14.383000373840332 -42.25899887084961,-15.220999717712402 -43.790000915527344,-14.739999771118164 C-45.32699966430664,-14.248000144958496 -46.18299865722656,-12.616999626159668 -45.70000076293945,-11.079999923706055 C-45.34400177001953,-9.95199966430664 -36.95800018310547,15.220000267028809 2.0299999713897705,15.220000267028809 C2.0299999713897705,15.220000267028809 2.0299999713897705,15.220000267028809 2.0299999713897705,15.220000267028809z"></path></g><g opacity="1" transform="matrix(1,0,0,1,-45.54999923706055,65.98999786376953)"><path fill="rgb(237,158,97)" fill-opacity="1" d=" M2.5399999618530273,0.5799999833106995 C2.2230000495910645,1.9919999837875366 0.843999981880188,2.878000020980835 -0.5799999833106995,2.559999942779541 C-1.9839999675750732,2.243000030517578 -2.88100004196167,0.828000009059906 -2.559999942779541,-0.5799999833106995 C-2.253999948501587,-1.996000051498413 -0.8460000157356262,-2.875999927520752 0.5699999928474426,-2.559999942779541 C1.9819999933242798,-2.2360000610351562 2.872999906539917,-0.8360000252723694 2.5399999618530273,0.5799999833106995 C2.5399999618530273,0.5799999833106995 2.5399999618530273,0.5799999833106995 2.5399999618530273,0.5799999833106995z"></path></g><g opacity="1" transform="matrix(1,0,0,1,-40.40999984741211,84.63999938964844)"><path fill="rgb(237,158,97)" fill-opacity="1" d=" M2.559999942779541,0.5699999928474426 C2.2309999465942383,1.9839999675750732 0.8320000171661377,2.871999979019165 -0.5799999833106995,2.559999942779541 C-1.9919999837875366,2.246999979019165 -2.878999948501587,0.847000002861023 -2.569999933242798,-0.5699999928474426 C-2.24399995803833,-1.9800000190734863 -0.847000002861023,-2.869999885559082 0.5699999928474426,-2.549999952316284 C1.9850000143051147,-2.234999895095825 2.878000020980835,-0.8410000205039978 2.559999942779541,0.5699999928474426 C2.559999942779541,0.5699999928474426 2.559999942779541,0.5699999928474426 2.559999942779541,0.5699999928474426z"></path></g><g opacity="1" transform="matrix(1,0,0,1,-31.889999389648438,74.05000305175781)"><path fill="rgb(237,158,97)" fill-opacity="1" d=" M2.559999942779541,0.5699999928474426 C2.253999948501587,1.9830000400543213 0.8330000042915344,2.878000020980835 -0.5600000023841858,2.559999942779541 C-1.9839999675750732,2.240999937057495 -2.865999937057495,0.8379999995231628 -2.5399999618530273,-0.5799999833106995 C-2.2309999465942383,-2 -0.8259999752044678,-2.877000093460083 0.5699999928474426,-2.559999942779541 C1.9859999418258667,-2.242000102996826 2.872999906539917,-0.843999981880188 2.559999942779541,0.5699999928474426 C2.559999942779541,0.5699999928474426 2.559999942779541,0.5699999928474426 2.559999942779541,0.5699999928474426z"></path></g><g opacity="1" transform="matrix(1,0,0,1,-54.959999084472656,79.55999755859375)"><path fill="rgb(237,158,97)" fill-opacity="1" d=" M2.559999942779541,0.5699999928474426 C2.2300000190734863,1.9859999418258667 0.8479999899864197,2.875999927520752 -0.5799999833106995,2.559999942779541 C-1.9880000352859497,2.242000102996826 -2.875999927520752,0.8360000252723694 -2.549999952316284,-0.5699999928474426 C-2.25600004196167,-1.9839999675750732 -0.8519999980926514,-2.881999969482422 0.5600000023841858,-2.559999942779541 C1.9759999513626099,-2.244999885559082 2.877000093460083,-0.8339999914169312 2.559999942779541,0.5699999928474426 C2.559999942779541,0.5699999928474426 2.559999942779541,0.5699999928474426 2.559999942779541,0.5699999928474426z"></path></g><g opacity="1" transform="matrix(1,0,0,1,7.03000020980835,78.52999877929688)"><path fill="rgb(83,18,0)" fill-opacity="1" d=" M-5.170000076293945,-5.239999771118164 C-5.170000076293945,-5.239999771118164 -7.173999786376953,0.6039999723434448 -2.549999952316284,2.9200000762939453 C2.0739998817443848,5.23799991607666 7.179999828338623,0.4000000059604645 7.179999828338623,0.4000000059604645 C7.179999828338623,0.4000000059604645 -5.170000076293945,-5.239999771118164 -5.170000076293945,-5.239999771118164 C-5.170000076293945,-5.239999771118164 -5.170000076293945,-5.239999771118164 -5.170000076293945,-5.239999771118164z"></path></g><g opacity="1" transform="matrix(1,0,0,1,-68.69999694824219,62.87999725341797)"><path fill="rgb(61,5,0)" fill-opacity="1" d=" M-8.130000114440918,-10.5600004196167 C-17.091999053955078,-2.236999988555908 -10.949999809265137,10.107000350952148 -4.420000076293945,17.309999465942383 C4.797999858856201,10.463000297546387 11.993000030517578,-0.7350000143051147 17.100000381469727,-10.960000038146973 C9.937000274658203,-14.255000114440918 -0.8579999804496765,-17.31399917602539 -8.130000114440918,-10.5600004196167 C-8.130000114440918,-10.5600004196167 -8.130000114440918,-10.5600004196167 -8.130000114440918,-10.5600004196167z"></path></g><g opacity="1" transform="matrix(1,0,0,1,-68.10000610351562,36.77000045776367)"><path fill="rgb(145,27,0)" fill-opacity="1" d=" M-20.559999465942383,4.070000171661377 C-19.13599967956543,1.6720000505447388 -15.859999656677246,-6.368000030517578 -1.559999942779541,-5.769999980926514 C12.74899959564209,-5.179999828338623 21.917999267578125,0.6430000066757202 7.440000057220459,2.430000066757202 C-7.0289998054504395,4.210000038146973 -21.91699981689453,6.36899995803833 -20.559999465942383,4.070000171661377 C-20.559999465942383,4.070000171661377 -20.559999465942383,4.070000171661377 -20.559999465942383,4.070000171661377z"></path></g><g opacity="1" transform="matrix(1,0,0,1,47.959999084472656,25.350000381469727)"><path fill="rgb(13,13,13)" fill-opacity="1" d=" M20.739999771118164,11.520000457763672 C20.1560001373291,5.534999847412109 14.37399959564209,-9.079999923706055 1.159999966621399,-10.300000190734863 C-12.050999641418457,-11.520000457763672 -20.739999771118164,0.9409999847412109 -18.790000915527344,9.270000457763672 C-14.758000373840332,4.044000148773193 -6.73199987411499,-1 2.319999933242798,1.5199999809265137 C11.942000389099121,4.197000026702881 20.739999771118164,11.520000457763672 20.739999771118164,11.520000457763672 C20.739999771118164,11.520000457763672 20.739999771118164,11.520000457763672 20.739999771118164,11.520000457763672z"></path></g><g opacity="1" transform="matrix(1,0,0,1,-106.50999450683594,-99.32999420166016)"><g opacity="1" transform="matrix(0.8999999761581421,0,0,0.8999999761581421,71.34500122070312,190.99301147460938)"><g opacity="1" transform="matrix(1,0,0,1,37.7400016784668,21.530000686645508)"><path fill="rgb(236,78,79)" fill-opacity="1" d=" M-1.6799999475479126,-21.280000686645508 C-1.6799999475479126,-21.280000686645508 37.49399948120117,-6.676000118255615 15.3100004196167,7.340000152587891 C-6.761000156402588,21.280000686645508 -24.216999053955078,1.24399995803833 -37.4900016784668,-13.079999923706055 C-19.371999740600586,-15.892000198364258 -1.6799999475479126,-21.280000686645508 -1.6799999475479126,-21.280000686645508 C-1.6799999475479126,-21.280000686645508 -1.6799999475479126,-21.280000686645508 -1.6799999475479126,-21.280000686645508z"></path></g><g opacity="1" transform="matrix(1,0,0,1,27.610000610351562,12.649999618530273)"><path fill="rgb(222,66,78)" fill-opacity="1" d=" M11.819999694824219,7.449999809265137 C11.819999694824219,7.449999809265137 5.948999881744385,-7.443999767303467 -0.23000000417232513,-6.75 C-6.4029998779296875,-6.052999973297119 -11.819999694824219,-5.389999866485596 -11.819999694824219,-5.389999866485596 C-11.819999694824219,-5.389999866485596 1.4420000314712524,1.2000000476837158 11.819999694824219,7.449999809265137 C11.819999694824219,7.449999809265137 11.819999694824219,7.449999809265137 11.819999694824219,7.449999809265137z"></path></g></g><g opacity="1" transform="matrix(0.9999573230743408,-0.009239846840500832,0.009239846840500832,0.9999573230743408,207.65225219726562,-20.090530395507812)"><g opacity="1" transform="matrix(1,0,0,1,123.30999755859375,77)"><path fill="rgb(227,225,219)" fill-opacity="1" d=" M-82.37999725341797,-39.150001525878906 C-82.37999725341797,-39.150001525878906 41.98099899291992,-46.617000579833984 63.2400016784668,-51.41999816894531 C84.4990005493164,-56.224998474121094 113.71800231933594,-76.75399780273438 118.38999938964844,-56.84000015258789 C123.05699920654297,-36.93000030517578 64.96800231933594,76.7490005493164 -37.95000076293945,59.02000045776367 C-123.06400299072266,44.356998443603516 -82.37999725341797,-39.150001525878906 -82.37999725341797,-39.150001525878906 C-82.37999725341797,-39.150001525878906 -82.37999725341797,-39.150001525878906 -82.37999725341797,-39.150001525878906z"></path></g><g opacity="1" transform="matrix(1,0,0,1,59.189998626708984,126.4000015258789)"><path fill="rgb(255,130,60)" fill-opacity="1" d=" M-0.029999999329447746,-1.3899999856948853 C-0.029999999329447746,-1.3899999856948853 0.23999999463558197,1.3899999856948853 0.23999999463558197,1.3899999856948853 C0.1809999942779541,1.3609999418258667 0.12300000339746475,1.3289999961853027 0.05999999865889549,1.2999999523162842 C-0.04899999871850014,0.8489999771118164 -0.1420000046491623,0.39899998903274536 -0.23999999463558197,-0.05000000074505806 C-0.17299999296665192,-0.49399998784065247 -0.13199999928474426,-0.9509999752044678 -0.029999999329447746,-1.3899999856948853 C-0.029999999329447746,-1.3899999856948853 -0.029999999329447746,-1.3899999856948853 -0.029999999329447746,-1.3899999856948853z"></path></g><g opacity="1" transform="matrix(1,0,0,1,141.11000061035156,74.86000061035156)"><path fill="rgb(227,225,219)" fill-opacity="1" d=" M-86.95999908447266,-0.800000011920929 C-3.6029999256134033,2.7239999771118164 55.37900161743164,-21.316999435424805 92.05999755859375,-63.029998779296875 C96.25299835205078,-62.4379997253418 99.33100128173828,-60.066001892089844 100.58999633789062,-54.70000076293945 C105.25800323486328,-34.79100036621094 47.16699981689453,78.88899993896484 -55.75,61.15999984741211 C-66.19100189208984,59.361000061035156 -74.71800231933594,56.51100158691406 -81.68000030517578,52.91999816894531 C-81.68000030517578,52.91999816894531 -121.04900360107422,25.468000411987305 -86.95999908447266,-0.800000011920929 C-86.95999908447266,-0.800000011920929 -86.95999908447266,-0.800000011920929 -86.95999908447266,-0.800000011920929z"></path></g><g opacity="1" transform="matrix(1,0,0,1,59.0099983215332,127.02999877929688)"><path fill="rgb(255,130,60)" fill-opacity="1" d=" M0.23999999463558197,0.6800000071525574 C0.07900000363588333,0.593999981880188 -0.07599999755620956,0.5040000081062317 -0.23999999463558197,0.41999998688697815 C-0.20100000500679016,0.050999999046325684 -0.12300000339746475,-0.31299999356269836 -0.05999999865889549,-0.6800000071525574 C0.03799999877810478,-0.23100000619888306 0.12999999523162842,0.2290000021457672 0.23999999463558197,0.6800000071525574 C0.23999999463558197,0.6800000071525574 0.23999999463558197,0.6800000071525574 0.23999999463558197,0.6800000071525574z"></path></g><g opacity="1" transform="matrix(1,0,0,1,122.97000122070312,84.22000122070312)"><path fill="rgb(240,223,208)" fill-opacity="1" d=" M-66.08999633789062,-3.119999885559082 C-66.08999633789062,-3.119999885559082 -22.535999298095703,4.828999996185303 43.59000015258789,-13.210000038146973 C79.39700317382812,-22.979000091552734 98.2969970703125,-54.071998596191406 101.9800033569336,-40.209999084472656 C105.66600036621094,-26.35099983215332 54.33399963378906,54.07099914550781 -33.2400016784668,43.2400016784668 C-105.66899871826172,34.28099822998047 -66.08999633789062,-3.119999885559082 -66.08999633789062,-3.119999885559082 C-66.08999633789062,-3.119999885559082 -66.08999633789062,-3.119999885559082 -66.08999633789062,-3.119999885559082z"></path></g><g opacity="1" transform="matrix(1,0,0,1,83.62999725341797,97.72000122070312)"><path fill="rgb(240,223,208)" fill-opacity="1" d=" M-32.11000061035156,16.56999969482422 C-46.849998474121094,2.4070000648498535 -26.75,-16.6200008392334 -26.75,-16.6200008392334 C-26.75,-16.6200008392334 1.434000015258789,-11.491999626159668 46.849998474121094,-18.860000610351562 C29.27400016784668,5.642000198364258 -1.8259999752044678,18.858999252319336 -32.11000061035156,16.56999969482422 C-32.11000061035156,16.56999969482422 -32.11000061035156,16.56999969482422 -32.11000061035156,16.56999969482422z"></path></g></g></g></g><g opacity="1" transform="matrix(-0.08555420488119125,-0.9963335394859314,0.9963335394859314,-0.08555420488119125,56.892578125,438.1392517089844)"><g opacity="1" transform="matrix(1,0,0,1,160.3699951171875,95.20999908447266)"><path fill="rgb(245,242,236)" fill-opacity="1" d=" M38.22999954223633,-59.439998626708984 C-10.786999702453613,-31.760000228881836 -97.96499633789062,20.488000869750977 -136.11000061035156,29.6299991607666 C-160.11399841308594,52.87300109863281 -152.74600219726562,77.99099731445312 -123.91999816894531,80.48999786376953 C-95.0790023803711,82.98400115966797 16.054000854492188,94.95700073242188 77.44999694824219,60.31999969482422 C160.12100219726562,13.687000274658203 101.13999938964844,-94.95700073242188 38.22999954223633,-59.439998626708984 C38.22999954223633,-59.439998626708984 38.22999954223633,-59.439998626708984 38.22999954223633,-59.439998626708984z"></path></g><g opacity="1" transform="matrix(1,0,0,1,56.7400016784668,132.8800048828125)"><path fill="rgb(245,242,236)" fill-opacity="1" d=" M49.77000045776367,-45.18000030517578 C17.384000778198242,-27.704999923706055 -13.579999923706055,-12.571000099182129 -32.4900016784668,-8.039999961853027 C-56.49399948120117,15.20300006866455 -49.125999450683594,40.31100082397461 -20.299999237060547,42.810001373291016 C-14.102999687194824,43.34299850463867 -4.085000038146973,44.321998596191406 8.399999618530273,45.18000030517578 C30.863000869750977,26.638999938964844 48.516998291015625,0.6119999885559082 55.90999984741211,-25.93000030517578 C56.49100112915039,-32.65700149536133 54.08399963378906,-39.374000549316406 49.77000045776367,-45.18000030517578 C49.77000045776367,-45.18000030517578 49.77000045776367,-45.18000030517578 49.77000045776367,-45.18000030517578z"></path></g></g><g opacity="1" transform="matrix(-0.08555420488119125,-0.9963335394859314,0.9963335394859314,-0.08555420488119125,56.892578125,438.1392517089844)"><g opacity="1" transform="matrix(0.8630155324935913,0.5051773190498352,-0.5051773190498352,0.8630155324935913,-8.657876968383789,94.35662841796875)"><g opacity="1" transform="matrix(1,0,0,1,31.030000686645508,17.979999542236328)"><path fill="rgb(245,242,236)" fill-opacity="1" d=" M9.069999694824219,9.430000305175781 C-5.284999847412109,15.647000312805176 -17.402000427246094,17.729000091552734 -23.09000015258789,11.449999809265137 C-28.7810001373291,5.173999786376953 -25.947999954223633,-0.4410000145435333 -13.109999656677246,-9.050000190734863 C-0.16300000250339508,-17.722000122070312 17.381999969482422,-11.557000160217285 23.06999969482422,-5.289999961853027 C28.78499984741211,0.9890000224113464 23.197999954223633,3.302999973297119 9.069999694824219,9.430000305175781 C9.069999694824219,9.430000305175781 9.069999694824219,9.430000305175781 9.069999694824219,9.430000305175781z"></path></g><g opacity="1" transform="matrix(1,0,0,1,37.709999084472656,32.630001068115234)"><path fill="rgb(245,242,236)" fill-opacity="1" d=" M11.59000015258789,11.239999771118164 C-0.36500000953674316,21.85700035095215 -16.743999481201172,15.935999870300293 -22.600000381469727,9.479999542236328 C-28.45599937438965,3.0280001163482666 -26.062999725341797,-7.409999847412109 -11.789999961853027,-14.510000228881836 C2.9579999446868896,-21.86400032043457 16.738000869750977,-19.5 22.59000015258789,-13.039999961853027 C28.45800018310547,-6.604000091552734 23.55699920654297,0.6579999923706055 11.59000015258789,11.239999771118164 C11.59000015258789,11.239999771118164 11.59000015258789,11.239999771118164 11.59000015258789,11.239999771118164z"></path></g><g opacity="1" transform="matrix(1,0,0,1,44.11000061035156,43.560001373291016)"><path fill="rgb(245,242,236)" fill-opacity="1" d=" M10.010000228881836,12.609999656677246 C-3.6670000553131104,20.804000854492188 -10.262999534606934,22.398000717163086 -20.350000381469727,10.890000343322754 C-26.093000411987305,4.328999996185303 -19.62700080871582,-6.058000087738037 -5.949999809265137,-14.220000267028809 C7.71999979019165,-22.402000427246094 17.847999572753906,-22.395000457763672 21.969999313354492,-14.65999984741211 C26.089000701904297,-6.953000068664551 23.672000885009766,4.452000141143799 10.010000228881836,12.609999656677246 C10.010000228881836,12.609999656677246 10.010000228881836,12.609999656677246 10.010000228881836,12.609999656677246z"></path></g><g opacity="1" transform="matrix(1,0,0,1,57.20000076293945,54.27000045776367)"><path fill="rgb(245,242,236)" fill-opacity="1" d=" M17.81999969482422,10.300000190734863 C5.747000217437744,20.648000717163086 -14.866000175476074,22.308000564575195 -20.489999771118164,15.640000343322754 C-26.094999313354492,8.99899959564209 -20.31599998474121,-1.878999948501587 -8.050000190734863,-12.119999885559082 C-3.8459999561309814,-15.633000373840332 5.71999979019165,-22.308000564575195 12.670000076293945,-16.969999313354492 C21.672000885009766,-10.050999641418457 26.091999053955078,3.190000057220459 17.81999969482422,10.300000190734863 C17.81999969482422,10.300000190734863 17.81999969482422,10.300000190734863 17.81999969482422,10.300000190734863z"></path></g><g opacity="1" transform="matrix(1,0,0,1,8.789999961853027,22.15999984741211)"><path fill="rgb(87,72,4)" fill-opacity="1" d=" M0.05000000074505806,3.7899999618530273 C-2.444999933242798,6.894999980926514 -8.532999992370605,1.2890000343322754 -5.519999980926514,-1.2999999523162842 C-2.493000030517578,-3.9010000228881836 4.385000228881836,-6.89300012588501 6.460000038146973,-4.610000133514404 C8.53499984741211,-2.3469998836517334 2.4230000972747803,0.8320000171661377 0.05000000074505806,3.7899999618530273 C0.05000000074505806,3.7899999618530273 0.05000000074505806,3.7899999618530273 0.05000000074505806,3.7899999618530273z"></path></g><g opacity="1" transform="matrix(1,0,0,1,17.3799991607666,38.20000076293945)"><path fill="rgb(87,72,4)" fill-opacity="1" d=" M-0.6600000262260437,4.599999904632568 C-3.677000045776367,7.208000183105469 -9.45199966430664,0.9950000047683716 -6.420000076293945,-1.590000033378601 C-3.388000011444092,-4.171000003814697 5.308000087738037,-7.211999893188477 7.380000114440918,-4.949999809265137 C9.454999923706055,-2.6670000553131104 2.375999927520752,2.0190000534057617 -0.6600000262260437,4.599999904632568 C-0.6600000262260437,4.599999904632568 -0.6600000262260437,4.599999904632568 -0.6600000262260437,4.599999904632568z"></path></g><g opacity="1" transform="matrix(1,0,0,1,25.1200008392334,48.15999984741211)"><path fill="rgb(87,72,4)" fill-opacity="1" d=" M-0.4399999976158142,4.079999923706055 C-3.4560000896453857,6.681000232696533 -9.354000091552734,0.8370000123977661 -6.329999923706055,-1.7599999904632568 C-3.309999942779541,-4.3520002365112305 5.214000225067139,-6.671999931335449 7.289999961853027,-4.389999866485596 C9.359999656677246,-2.134000062942505 2.5810000896453857,1.4869999885559082 -0.4399999976158142,4.079999923706055 C-0.4399999976158142,4.079999923706055 -0.4399999976158142,4.079999923706055 -0.4399999976158142,4.079999923706055z"></path></g><g opacity="1" transform="matrix(1,0,0,1,37.52000045776367,65.62000274658203)"><path fill="rgb(87,72,4)" fill-opacity="1" d=" M0.36000001430511475,3.359999895095825 C-2.6679999828338623,5.953000068664551 -8.661999702453613,0.06400000303983688 -5.650000095367432,-2.5399999618530273 C-2.625999927520752,-5.125 4.513000011444092,-5.951000213623047 6.579999923706055,-3.6600000858306885 C8.654999732971191,-1.3860000371932983 3.380000114440918,0.7559999823570251 0.36000001430511475,3.359999895095825 C0.36000001430511475,3.359999895095825 0.36000001430511475,3.359999895095825 0.36000001430511475,3.359999895095825z"></path></g></g></g></g></g><g transform="matrix(1.125,0,0,1.125,227.8699951171875,107.28500366210938)" opacity="1" style="display: block;"><g opacity="1" transform="matrix(1,0,0,1,8.59000015258789,223.69000244140625)"><g opacity="1" transform="matrix(1.0238964557647705,0.10761585086584091,-0.10761585086584091,1.0238964557647705,0,0)"><g opacity="1" transform="matrix(1,0,0,1,0,0)"><g opacity="1" transform="matrix(1,0,0,1,0,0)"><path stroke-linecap="round" stroke-linejoin="round" fill-opacity="0" stroke="rgb(190,230,255)" stroke-opacity="0.75" stroke-width="4" d=" M-0.98,-167.8 C7.3,-167.8 14.02,-161.08 14.02,-152.8 C14.02,-144.52 7.3,-137.8 -0.98,-137.8 C-9.26,-137.8 -15.98,-144.52 -15.98,-152.8 C-15.98,-161.08 -9.26,-167.8 -0.98,-167.8z M-7.12,-83.73 C-7.12,-83.73 -7.12,-168.73 -7.12,-168.73"></path><path fill="rgb(0,123,255)" fill-opacity="0.9500000000000001" d=" M-0.98,-167.8 C7.3,-167.8 14.02,-161.08 14.02,-152.8 C14.02,-144.52 7.3,-137.8 -0.98,-137.8 C-9.26,-137.8 -15.98,-144.52 -15.98,-152.8 C-15.98,-161.08 -9.26,-167.8 -0.98,-167.8z M-7.12,-83.73 C-7.12,-83.73 -7.12,-168.73 -7.12,-168.73"></path><g opacity="1" transform="matrix(1,0,0,1,-0.9800000190734863,-152.8000030517578)"></g><g opacity="1" transform="matrix(1,0,0,1,-27.1200008392334,-13.729999542236328)"></g></g></g><g opacity="1" transform="matrix(1,0,0,1,-20.979999542236328,2.1999969482421875)"><path stroke-linecap="round" stroke-linejoin="round" fill-opacity="0" stroke="rgb(42,49,55)" stroke-opacity="1" stroke-width="8" d=" M20,-70 C20,-70 20,-155 20,-155"></path></g></g></g></g></g></g></svg>