<svg xmlns="http://www.w3.org/2000/svg" viewBox="0 0 1080 1080" width="1080" height="1080" preserveAspectRatio="xMidYMid meet" style="width: 100%; height: 100%; transform: translate3d(0px, 0px, 0px);"><defs><clipPath id="__lottie_element_435"><rect width="1080" height="1080" x="0" y="0"></rect></clipPath></defs><g clip-path="url(#__lottie_element_435)"><g transform="matrix(0.5625,0,0,0.5625,540,235)" opacity="1" style="display: block;"><g opacity="1" transform="matrix(1,0,0,1,8.59000015258789,223.69000244140625)"><g opacity="1" transform="matrix(1.0472604036331177,0.11007151007652283,-0.11007151007652283,1.0472604036331177,0,0)"><g opacity="1" transform="matrix(1,0,0,1,0,0)"><g opacity="1" transform="matrix(1,0,0,1,0,0)"><path stroke-linecap="round" stroke-linejoin="round" fill-opacity="0" stroke="rgb(190,230,255)" stroke-opacity="0.75" stroke-width="8" d=" M-0.98,-352.8 C15.58,-352.8 29.02,-339.36 29.02,-322.8 C29.02,-306.24 15.58,-292.8 -0.98,-292.8 C-17.54,-292.8 -30.98,-306.24 -30.98,-322.8 C-30.98,-339.36 -17.54,-352.8 -0.98,-352.8z M-7.12,-83.73 C-7.12,-83.73 -7.12,-338.73 -7.12,-338.73"></path><path fill="rgb(0,123,255)" fill-opacity="0.9500000000000001" d=" M-0.98,-352.8 C15.58,-352.8 29.02,-339.36 29.02,-322.8 C29.02,-306.24 15.58,-292.8 -0.98,-292.8 C-17.54,-292.8 -30.98,-306.24 -30.98,-322.8 C-30.98,-339.36 -17.54,-352.8 -0.98,-352.8z M-7.12,-83.73 C-7.12,-83.73 -7.12,-338.73 -7.12,-338.73"></path><g opacity="1" transform="matrix(1,0,0,1,-0.9800000190734863,-322.79998779296875)"></g><g opacity="1" transform="matrix(1,0,0,1,-27.1200008392334,-13.729999542236328)"></g></g></g><g opacity="1" transform="matrix(1,0,0,1,-20.979999542236328,2.1999969482421875)"><path stroke-linecap="round" stroke-linejoin="round" fill-opacity="0" stroke="rgb(42,49,55)" stroke-opacity="1" stroke-width="8" d=" M20,-70 C20,-70 20,-325 20,-325"></path></g></g></g></g><g transform="matrix(1,0,0,1,0,-24)" opacity="1" style="display: block;"><g opacity="0.6" transform="matrix(1,0,0,1,239.0469970703125,528.0499877929688)"><path fill="rgb(13,166,236)" fill-opacity="1" d=" M-78.03140258789062,-15.560420989990234 C-68.36639404296875,-23.80430030822754 -34.681461334228516,-22.994909286499023 -14.976837158203125,-22.994909286499023 C4.72678804397583,-22.994909286499023 43.5726432800293,-22.12041664123535 54.269046783447266,-8.563356399536133 C64.96609497070312,4.9937028884887695 35.26760482788086,19.425607681274414 -10.685173034667969,19.425607681274414 C-56.6379508972168,19.425607681274414 -106.74324798583984,8.930158615112305 -78.03140258789062,-15.560420989990234z"></path></g><g opacity="1" transform="matrix(1,0,0,1,889.8480224609375,627.0819702148438)"><path fill="rgb(13,166,236)" fill-opacity="1" d=" M-47.4984016418457,-58.44683837890625 C-47.4984016418457,-58.44683837890625 26.03606605529785,-56.87379837036133 52.55647277832031,-52.396034240722656 C79.07588195800781,-47.91827392578125 112.82938385009766,-15.3071870803833 83.29481506347656,19.01938247680664 C53.76088333129883,53.34659957885742 10.02611255645752,49.341331481933594 -113.9355697631836,49.341331481933594 C-92.70335388183594,-18.740097045898438 -47.4984016418457,-58.44683837890625 -47.4984016418457,-58.44683837890625z"></path></g><g opacity="1" transform="matrix(1,0,0,1,417.71600341796875,703.0989990234375)"><path fill="rgb(13,166,236)" fill-opacity="1" d=" M-154.89700317382812,-113.9260025024414 C-154.89700317382812,-113.9260025024414 -202.3861541748047,-125.6717758178711 -270.36114501953125,-115.3687744140625 C-312.1231384277344,-109.03877258300781 -360.1083679199219,-96.54736328125 -351.3236389160156,-66.46412658691406 C-343.55889892578125,-29.988656997680664 -269.935302734375,-27.468408584594727 -240.15330505371094,-1.6354091167449951 C-210.37130737304688,24.196590423583984 -291.7439270019531,45.34651565551758 -317.6661682128906,88.19841766357422 C-340.1811828613281,124.06375885009766 -310.5038757324219,168.2339324951172 -195.99391174316406,178.24644470214844 C-105.37390899658203,186.87811279296875 -62.56146240234375,143.5913848876953 123.01153564453125,155.0183868408203 C205.18553161621094,160.07838439941406 268.4048156738281,252.70933532714844 408.58660888671875,199.95619201660156 C502.49224853515625,168.95794677734375 319.302001953125,39.406009674072266 222.06399536132812,0.9470102787017822 C70.24298858642578,-29.982990264892578 -154.89700317382812,-113.9260025024414 -154.89700317382812,-113.9260025024414z"></path></g><g opacity="1" transform="matrix(1,0,0,1,544.3289794921875,597.6810302734375)"><path fill="rgb(66,66,66)" fill-opacity="1" d=" M333.0899963378906,0 C333.0899963378906,78.93299865722656 260.7619934082031,152.4290008544922 -4.507999897003174,170.90199279785156 C-222.6719970703125,186.09500122070312 -333.0889892578125,78.93299865722656 -333.0889892578125,0 C-333.0889892578125,-78.93299865722656 -221.7270050048828,-142.9199981689453 -3.0350000858306885,-142.9199981689453 C215.65699768066406,-142.9199981689453 333.0899963378906,-78.93299865722656 333.0899963378906,0z"></path></g><g opacity="1" transform="matrix(1,0,0,1,570.4739990234375,595.7169799804688)"><path fill="rgb(66,66,66)" fill-opacity="1" d=" M-131.0500030517578,-94.5469970703125 C-131.0500030517578,-94.5469970703125 -221.10305786132812,-16.56309700012207 -229.74005126953125,143.98989868164062 C-138.8609161376953,193.35455322265625 24.123315811157227,167.24708557128906 24.123315811157227,167.24708557128906 C24.123315811157227,167.24708557128906 -52.602813720703125,-11.533763885498047 11.684185028076172,-100.22476196289062 C37.22908401489258,-99.39899444580078 66.44635772705078,-100.30219268798828 87.52835845947266,-99.39400482177734 C176.72412109375,-95.54102325439453 226.07456970214844,-79.68711853027344 300.9381408691406,30.319808959960938 C312.8266296386719,6.501948356628418 303.343994140625,-21.354000091552734 300.2300109863281,-32.744998931884766 C287.3890075683594,-54 263.82501220703125,-89.83599853515625 191.78700256347656,-112.7959976196289 C139.22779846191406,-125.75599670410156 102.62200164794922,-143.052001953125 102.62200164794922,-143.052001953125 C102.62200164794922,-143.052001953125 -228.57540893554688,-118.019287109375 -228.57540893554688,-118.019287109375 C-228.57540893554688,-118.019287109375 -247.6378631591797,-108.85089111328125 -265.6865539550781,-103.35395050048828 C-285.241455078125,-94.95116424560547 -293.4051818847656,-89.9861831665039 -293.4051818847656,-89.9861831665039 C-293.4051818847656,-89.9861831665039 -131.0500030517578,-94.5469970703125 -131.0500030517578,-94.5469970703125z"></path></g><g opacity="0.7000000000000001" transform="matrix(1,0,0,1,544.3300170898438,539.614013671875)"><path fill="rgb(226,225,219)" fill-opacity="1" d=" M228.9600067138672,0 C228.9600067138672,38.630001068115234 148.23800659179688,69.9469985961914 -2.0869998931884766,69.9469985961914 C-152.41200256347656,69.9469985961914 -228.9600067138672,38.630001068115234 -228.9600067138672,0 C-228.9600067138672,-38.63100051879883 -152.41200256347656,-69.9469985961914 -2.0869998931884766,-69.9469985961914 C148.23800659179688,-69.9469985961914 228.9600067138672,-38.63100051879883 228.9600067138672,0z"></path></g><g opacity="1" transform="matrix(1,0,0,1,685.3004150390625,573.573974609375)"><path fill="rgb(244,242,236)" fill-opacity="1" d=" M-57.599998474121094,-20 C-57.599998474121094,-20 -45.80891799926758,-0.24424730241298676 -48.378299713134766,16.08609962463379 C-49.27798843383789,29.069637298583984 -48.05830001831055,46.166099548339844 -32.378299713134766,51.60609817504883 C-16.69930076599121,57.04610061645508 24.58169937133789,60.24610137939453 37.380699157714844,43.92610168457031 C50.18069839477539,27.60610008239746 46.264259338378906,7.9364800453186035 26.980899810791016,-16.35409927368164 C0.16112840175628662,-48.83478546142578 -31.84079933166504,-56.006500244140625 -31.84079933166504,-56.006500244140625 C-31.84079933166504,-56.006500244140625 -57.599998474121094,-20 -57.599998474121094,-20z"></path></g><g opacity="1" transform="matrix(1,0,0,1,676.0360107421875,548.968017578125)"><path fill="rgb(226,225,219)" fill-opacity="1" d=" M-37.219276428222656,30.834993362426758 C-37.219276428222656,30.834993362426758 56.261226654052734,38.40470886230469 43.44222640991211,14.282709121704102 C36.3962287902832,1.0247092247009277 5.9955620765686035,-18.156818389892578 -2.7732157707214355,-26.20757293701172 C-53.27521514892578,-23.704572677612305 -43.529457092285156,4.328718662261963 -43.529457092285156,4.328718662261963 C-43.529457092285156,4.328718662261963 -39.34820556640625,12.743329048156738 -38.589202880859375,19.300329208374023 C-37.769203186035156,26.38532829284668 -37.219276428222656,30.834993362426758 -37.219276428222656,30.834993362426758z"></path></g><g opacity="1" transform="matrix(1,0,0,1,483.69000244140625,570.041015625)"><path fill="rgb(244,242,236)" fill-opacity="1" d=" M-60.287071228027344,-40.60087203979492 C-60.287071228027344,-40.60087203979492 -51.645225524902344,-5.367241382598877 -54.673465728759766,9.005171775817871 C-56.3138313293457,21.53112030029297 -58.81086730957031,38.1572380065918 -44.44350051879883,45.73883056640625 C-30.076133728027344,53.32087326049805 8.625174522399902,59.9455451965332 24.190170288085938,48.6217041015625 C36.6529426574707,37.62568664550781 34.95185470581055,18.00562858581543 18.151782989501953,-9.600347518920898 C-1.4351307153701782,-35.40958023071289 -26.859567642211914,-54.685157775878906 -26.859567642211914,-54.685157775878906 C-26.859567642211914,-54.685157775878906 -60.287071228027344,-40.60087203979492 -60.287071228027344,-40.60087203979492z"></path></g><g opacity="1" transform="matrix(1,0,0,1,489.2669982910156,540.9310302734375)"><path fill="rgb(226,225,219)" fill-opacity="1" d=" M-58.48806381225586,-12.049266815185547 C-58.48806381225586,-12.049266815185547 -31.24435043334961,49.95454788208008 30.455650329589844,17.27655029296875 C5.54265022277832,-26.724451065063477 -32.93029022216797,-47.877323150634766 -32.93029022216797,-47.877323150634766 C-32.93029022216797,-47.877323150634766 -58.48806381225586,-12.049266815185547 -58.48806381225586,-12.049266815185547z"></path></g><g opacity="1" transform="matrix(1,0,0,1,564.2520141601562,421.8900146484375)"><path fill="rgb(244,242,236)" fill-opacity="1" d=" M-28.26799964904785,-140.64999389648438 C18.43899917602539,-142.55099487304688 51.980751037597656,-126.75215148925781 69.26074981689453,-103.23214721679688 C86.541748046875,-79.71215057373047 94.39949035644531,-41.93214416503906 103.37464904785156,-10.675000190734863 C106.8998031616211,6.0275983810424805 115.60649108886719,23.055158615112305 121.37464904785156,35.24420166015625 C129.1700897216797,64.36260986328125 126.51220703125,100.87812042236328 95.13784790039062,119.88890075683594 C74.34488677978516,137.45220947265625 46.033782958984375,137.653564453125 25.56679916381836,127.32319641113281 C1.9210683107376099,134.88636779785156 -23.12849235534668,146.54547119140625 -67.67024993896484,135.84156799316406 C-114.57317352294922,124.24665832519531 -133.54920959472656,74.5513687133789 -137.423095703125,17.53274917602539 C-134.77090454101562,-25.91411018371582 -144.95799255371094,-88.16799926757812 -123.44300079345703,-116.6500015258789 C-87.72000122070312,-126.43399810791016 -72.47699737548828,-138.8509979248047 -28.26799964904785,-140.64999389648438z"></path></g><g opacity="1" transform="matrix(1,0,0,1,398.25,433.2409973144531)"><path fill="rgb(226,225,219)" fill-opacity="1" d=" M42.560001373291016,-128 C32.959999084472656,-127.68000030517578 7.7171502113342285,-124.44384765625 -5.083849906921387,-86.68385314941406 C-17.88385009765625,-48.923851013183594 -21.864877700805664,-27.56999397277832 -38.01784896850586,-2.240000009536743 C-55.0887565612793,24.823284149169922 -71.94747161865234,65.98429107666016 -42.96405029296875,98.55999755859375 C-17.50909423828125,124.3837890625 12.904547691345215,121.68743896484375 31.795499801635742,112.4300537109375 C53.57509231567383,101.76476287841797 53.39922332763672,92.36139678955078 62.68830108642578,29.127300262451172 C64.30546569824219,-16.558387756347656 51.207298278808594,-46.87350082397461 49.28730010986328,-75.67350006103516 C47.36830139160156,-104.47350311279297 43.97566223144531,-112.27202606201172 42.560001373291016,-128z"></path></g><g opacity="1" transform="matrix(1,0,0,1,538.6890258789062,427.781005859375)"><path fill="rgb(14,14,14)" fill-opacity="1" d=" M-9.827850341796875,-1.236549973487854 C-9.827850341796875,5.921450138092041 -15.629850387573242,11.72344970703125 -22.78784942626953,11.72344970703125 C-29.94485092163086,11.72344970703125 -35.74784851074219,5.921450138092041 -35.74784851074219,-1.236549973487854 C-35.74784851074219,-8.394550323486328 -29.94485092163086,-14.196550369262695 -22.78784942626953,-14.196550369262695 C-15.629850387573242,-14.196550369262695 -9.827850341796875,-8.394550323486328 -9.827850341796875,-1.236549973487854z"></path></g><g opacity="1" transform="matrix(1,0,0,1,643.969970703125,428.281005859375)"><path fill="rgb(14,14,14)" fill-opacity="1" d=" M-12.654250144958496,-1.0599000453948975 C-12.654250144958496,6.098100185394287 -18.456249237060547,11.900099754333496 -25.61425018310547,11.900099754333496 C-32.7712516784668,11.900099754333496 -38.574249267578125,6.098100185394287 -38.574249267578125,-1.0599000453948975 C-38.574249267578125,-8.217900276184082 -32.7712516784668,-14.01990032196045 -25.61425018310547,-14.01990032196045 C-18.456249237060547,-14.01990032196045 -12.654250144958496,-8.217900276184082 -12.654250144958496,-1.0599000453948975z"></path></g><g opacity="1" transform="matrix(1,0,0,1,538.3720092773438,387.5329895019531)"><path fill="rgb(226,225,219)" fill-opacity="1" d=" M-43.63838577270508,6.296851634979248 C-43.974098205566406,1.5909591913223267 -31.883337020874023,-2.5387825965881348 -25.532503128051758,-6.0101318359375 C-19.182315826416016,-9.48212718963623 -10.231908798217773,-9.946086883544922 -6.657947540283203,-1.6069594621658325 C-3.0833401679992676,6.733168125152588 -19.79174041748047,11.913334846496582 -25.760465621948242,12.38611125946045 C-31.731189727783203,12.85888671875 -43.27014923095703,11.462803840637207 -43.63838577270508,6.296851634979248z"></path></g><g opacity="1" transform="matrix(1,0,0,1,639.9030151367188,387.2070007324219)"><path fill="rgb(226,225,219)" fill-opacity="1" d=" M-4.581229209899902,4.909759998321533 C-4.522331237792969,0.5887660980224609 -14.952245712280273,-3.1777637004852295 -20.49359703063965,-6.3509111404418945 C-26.03394889831543,-9.523411750793457 -33.62931442260742,-9.931994438171387 -36.2550048828125,-2.268984794616699 C-38.88169479370117,5.39502477645874 -24.493831634521484,10.1155366897583 -19.41904640197754,10.536434173583984 C-14.34426212310791,10.957330703735352 -4.645623207092285,9.653047561645508 -4.581229209899902,4.909759998321533z"></path></g><g opacity="1" transform="matrix(1,0,0,1,623.2899780273438,480.08099365234375)"><path fill="rgb(14,14,14)" fill-opacity="1" d=" M-56.75434875488281,-8.003450393676758 C-55.838348388671875,-13.404450416564941 -17.794349670410156,-15.203450202941895 -14.474349975585938,-8.003450393676758 C-11.153349876403809,-0.8034499883651733 -21.474349975585938,17.676549911499023 -32.03335189819336,17.676549911499023 C-42.5943489074707,17.676549911499023 -59.153350830078125,6.15654993057251 -56.75434875488281,-8.003450393676758z"></path></g><g opacity="1" transform="matrix(1,0,0,1,627.1129760742188,496.52099609375)"><path stroke-linecap="round" stroke-linejoin="miter" fill-opacity="0" stroke-miterlimit="10" stroke="rgb(14,14,14)" stroke-opacity="1" stroke-width="7" d=" M-35.55094909667969,-9.353899955749512 C-35.55094909667969,-9.353899955749512 -34.7629508972168,5.286099910736084 -36.95695114135742,21.366100311279297"></path></g><g opacity="1" transform="matrix(1,0,0,1,481.6289978027344,604.2449951171875)"><path stroke-linecap="round" stroke-linejoin="miter" fill-opacity="0" stroke-miterlimit="10" stroke="rgb(66,66,66)" stroke-opacity="1" stroke-width="7" d=" M-25.784400939941406,12.098600387573242 C-25.784400939941406,12.098600387573242 -24.077451705932617,0.0685989037156105 -24.9778995513916,-10.509750366210938"></path></g><g opacity="1" transform="matrix(1,0,0,1,494.92724609375,606.7566528320312)"><path stroke-linecap="round" stroke-linejoin="miter" fill-opacity="0" stroke-miterlimit="10" stroke="rgb(66,66,66)" stroke-opacity="1" stroke-width="7" d=" M-3.559000015258789,13.020400047302246 C-3.559000015258789,13.020400047302246 -2.7437245845794678,1.9741989374160767 -3.2499499320983887,-8.781800270080566"></path></g><g opacity="1" transform="matrix(1,0,0,1,674.0546264648438,611.3109741210938)"><path stroke-linecap="round" stroke-linejoin="miter" fill-opacity="0" stroke-miterlimit="10" stroke="rgb(66,66,66)" stroke-opacity="1" stroke-width="7" d=" M-1.7589999437332153,11.392000198364258 C-1.7589999437332153,11.392000198364258 2.7200000286102295,-0.5789999961853027 -2.7190001010894775,-11.392999649047852"></path></g><g opacity="1" transform="matrix(1,0,0,1,708.7274780273438,608.7597045898438)"><path stroke-linecap="round" stroke-linejoin="miter" fill-opacity="0" stroke-miterlimit="10" stroke="rgb(66,66,66)" stroke-opacity="1" stroke-width="7" d=" M-0.026000000536441803,10.194000244140625 C-0.026000000536441803,10.194000244140625 2.7200000286102295,0.6200000047683716 -2.7200000286102295,-10.194999694824219"></path></g><g opacity="0.6" transform="matrix(1,0,0,1,872.89599609375,754.8629760742188)"><path fill="rgb(13,166,236)" fill-opacity="1" d=" M-73.03291320800781,-13.17629337310791 C-63.086326599121094,-21.65941619873047 -28.420631408691406,-20.827354431152344 -8.142248153686523,-20.827354431152344 C12.135135650634766,-20.827354431152344 52.11190414428711,-19.92706871032715 63.11991882324219,-5.974727630615234 C74.12857818603516,7.976967811584473 43.56485366821289,22.829299926757812 -3.72586989402771,22.829299926757812 C-51.01659393310547,22.829299926757812 -102.58102416992188,12.02789306640625 -73.03291320800781,-13.17629337310791z"></path></g><g opacity="1" transform="matrix(1,0,0,1,659.7080078125,424.6390075683594)"><path fill="rgb(226,225,219)" fill-opacity="1" d=" M-39.69900131225586,-119.39900207519531 C-30.743999481201172,-119.10099792480469 -2.0889999866485596,-121.19000244140625 9.85200023651123,-85.96700286865234 C21.791000366210938,-50.744998931884766 31.04400062561035,-25.073999404907227 47.16299819946289,-2.0889999866485596 C63.28200149536133,20.893999099731445 76.22721099853516,47.82017135620117 68.18074798583984,78.19462585449219 C67.915283203125,110.18387603759766 33.44918441772461,112.6263427734375 28.40162467956543,96.93195343017578 C22.329986572265625,92.25121307373047 28.68433380126953,74.00970458984375 6.766075134277344,23.294450759887695 C3.3605446815490723,3.173569440841675 -6.135785102844238,-31.535192489624023 -16.451749801635742,-71.76595306396484 C-23.674211502075195,-99.94602966308594 -38.672218322753906,-115.70904541015625 -39.69900131225586,-119.39900207519531z"></path></g></g></g></svg>